<mxfile host="app.diagrams.net" modified="2023-11-02T19:23:58.874Z" agent="Mozilla/5.0 (Windows NT 10.0; Win64; x64) AppleWebKit/537.36 (KHTML, like Gecko) Chrome/118.0.0.0 Safari/537.36" etag="dIGGAEyAW-x3gv6CXahy" version="22.0.8" type="github">
  <diagram name="1 oldal" id="gjOM7e6wO8diRWeVtiza">
    <mxGraphModel dx="5580" dy="7288" grid="1" gridSize="10" guides="1" tooltips="1" connect="1" arrows="1" fold="1" page="1" pageScale="1" pageWidth="3300" pageHeight="4681" math="0" shadow="0">
      <root>
        <mxCell id="0" />
        <mxCell id="1" parent="0" />
        <mxCell id="eI0seqku75HwyaSV5OBJ-1" value="A főhősünk Ernesztó, megérkezett a hintód, leszálltál az autóbusz állomásnál, Győr pöcegödrébe (vidéki).&lt;br&gt;Éhes vagy, és nincs sok petákod (500Ft). Célod, hogy életben maradj és elzsalj a mekibe, ahol legyen elég jussod, hogy tudj magadnak vásárolni egy bejövős ajánlatot (1390Ft).&lt;br&gt;Próbálj meg sértetlen maradni, valamint ne kötözködj sokat a hobókkal!&lt;br&gt;&lt;br&gt;Kezdő statok: &lt;br&gt;Pénz: 500Ft&lt;br&gt;Éhség: 75 %&lt;br&gt;Energia: 100%" style="whiteSpace=wrap;html=1;" parent="1" vertex="1">
          <mxGeometry x="1380" y="-4650" width="610" height="170" as="geometry" />
        </mxCell>
        <mxCell id="eI0seqku75HwyaSV5OBJ-11" value="" style="edgeStyle=orthogonalEdgeStyle;rounded=0;orthogonalLoop=1;jettySize=auto;html=1;" parent="1" source="eI0seqku75HwyaSV5OBJ-3" target="eI0seqku75HwyaSV5OBJ-10" edge="1">
          <mxGeometry relative="1" as="geometry" />
        </mxCell>
        <mxCell id="eI0seqku75HwyaSV5OBJ-13" value="" style="edgeStyle=orthogonalEdgeStyle;rounded=0;orthogonalLoop=1;jettySize=auto;html=1;" parent="1" source="eI0seqku75HwyaSV5OBJ-3" target="eI0seqku75HwyaSV5OBJ-12" edge="1">
          <mxGeometry relative="1" as="geometry" />
        </mxCell>
        <mxCell id="eI0seqku75HwyaSV5OBJ-3" value="Az orrodat megcsavarja az égett benzinből áradó füst, amely a buszok kipufogójából ered, a füled pedig brazilmagyarok ordibálásától cseng.&lt;br&gt;Gondold meg mely útvonalon próbálsz szerencsét.&lt;br&gt;" style="rounded=0;whiteSpace=wrap;html=1;" parent="1" vertex="1">
          <mxGeometry x="1470" y="-4430" width="380" height="60" as="geometry" />
        </mxCell>
        <mxCell id="eI0seqku75HwyaSV5OBJ-15" value="" style="edgeStyle=orthogonalEdgeStyle;rounded=0;orthogonalLoop=1;jettySize=auto;html=1;" parent="1" source="eI0seqku75HwyaSV5OBJ-10" target="eI0seqku75HwyaSV5OBJ-14" edge="1">
          <mxGeometry relative="1" as="geometry" />
        </mxCell>
        <mxCell id="eI0seqku75HwyaSV5OBJ-10" value="aluljáró (Veszélyesebb)" style="whiteSpace=wrap;html=1;rounded=0;" parent="1" vertex="1">
          <mxGeometry x="1410" y="-4240" width="120" height="60" as="geometry" />
        </mxCell>
        <mxCell id="xFF72bUd_hSEvZZGDsvH-12" value="" style="edgeStyle=orthogonalEdgeStyle;rounded=0;orthogonalLoop=1;jettySize=auto;html=1;" edge="1" parent="1" source="eI0seqku75HwyaSV5OBJ-12" target="A1ZuuhthlVVNKibYsWye-76">
          <mxGeometry relative="1" as="geometry">
            <Array as="points">
              <mxPoint x="2270" y="-3800" />
              <mxPoint x="2270" y="-3800" />
            </Array>
          </mxGeometry>
        </mxCell>
        <mxCell id="eI0seqku75HwyaSV5OBJ-12" value="Baross Gábor híd" style="whiteSpace=wrap;html=1;rounded=0;" parent="1" vertex="1">
          <mxGeometry x="2214.62" y="-3910" width="120" height="60" as="geometry" />
        </mxCell>
        <mxCell id="eI0seqku75HwyaSV5OBJ-17" value="" style="edgeStyle=orthogonalEdgeStyle;rounded=0;orthogonalLoop=1;jettySize=auto;html=1;" parent="1" source="eI0seqku75HwyaSV5OBJ-14" target="eI0seqku75HwyaSV5OBJ-16" edge="1">
          <mxGeometry relative="1" as="geometry" />
        </mxCell>
        <mxCell id="eI0seqku75HwyaSV5OBJ-19" value="" style="edgeStyle=orthogonalEdgeStyle;rounded=0;orthogonalLoop=1;jettySize=auto;html=1;" parent="1" source="eI0seqku75HwyaSV5OBJ-14" target="eI0seqku75HwyaSV5OBJ-18" edge="1">
          <mxGeometry relative="1" as="geometry" />
        </mxCell>
        <mxCell id="eI0seqku75HwyaSV5OBJ-14" value="Az aluljáró előtt meglátod egyik ismerősödet, Csabikát, aki az búcsúban lőtt JBL-én hallgatja a muzsikát.&lt;br&gt;Mit teszel?" style="whiteSpace=wrap;html=1;rounded=0;" parent="1" vertex="1">
          <mxGeometry x="1220" y="-4100" width="340" height="70" as="geometry" />
        </mxCell>
        <mxCell id="eI0seqku75HwyaSV5OBJ-21" value="" style="edgeStyle=orthogonalEdgeStyle;rounded=0;orthogonalLoop=1;jettySize=auto;html=1;" parent="1" source="eI0seqku75HwyaSV5OBJ-16" target="eI0seqku75HwyaSV5OBJ-20" edge="1">
          <mxGeometry relative="1" as="geometry" />
        </mxCell>
        <mxCell id="eI0seqku75HwyaSV5OBJ-23" value="" style="edgeStyle=orthogonalEdgeStyle;rounded=0;orthogonalLoop=1;jettySize=auto;html=1;" parent="1" source="eI0seqku75HwyaSV5OBJ-16" target="eI0seqku75HwyaSV5OBJ-22" edge="1">
          <mxGeometry relative="1" as="geometry" />
        </mxCell>
        <mxCell id="eI0seqku75HwyaSV5OBJ-24" value="" style="edgeStyle=orthogonalEdgeStyle;rounded=0;orthogonalLoop=1;jettySize=auto;html=1;" parent="1" source="eI0seqku75HwyaSV5OBJ-16" target="eI0seqku75HwyaSV5OBJ-22" edge="1">
          <mxGeometry relative="1" as="geometry" />
        </mxCell>
        <mxCell id="eI0seqku75HwyaSV5OBJ-25" value="" style="edgeStyle=orthogonalEdgeStyle;rounded=0;orthogonalLoop=1;jettySize=auto;html=1;" parent="1" source="eI0seqku75HwyaSV5OBJ-16" target="eI0seqku75HwyaSV5OBJ-22" edge="1">
          <mxGeometry relative="1" as="geometry" />
        </mxCell>
        <mxCell id="eI0seqku75HwyaSV5OBJ-27" value="" style="edgeStyle=orthogonalEdgeStyle;rounded=0;orthogonalLoop=1;jettySize=auto;html=1;" parent="1" source="eI0seqku75HwyaSV5OBJ-16" target="eI0seqku75HwyaSV5OBJ-26" edge="1">
          <mxGeometry relative="1" as="geometry" />
        </mxCell>
        <mxCell id="eI0seqku75HwyaSV5OBJ-29" value="" style="edgeStyle=orthogonalEdgeStyle;rounded=0;orthogonalLoop=1;jettySize=auto;html=1;" parent="1" source="eI0seqku75HwyaSV5OBJ-16" target="eI0seqku75HwyaSV5OBJ-28" edge="1">
          <mxGeometry relative="1" as="geometry" />
        </mxCell>
        <mxCell id="eI0seqku75HwyaSV5OBJ-16" value="Odamész" style="rounded=0;whiteSpace=wrap;html=1;" parent="1" vertex="1">
          <mxGeometry x="1110" y="-3900" width="120" height="60" as="geometry" />
        </mxCell>
        <mxCell id="eI0seqku75HwyaSV5OBJ-31" value="" style="edgeStyle=orthogonalEdgeStyle;rounded=0;orthogonalLoop=1;jettySize=auto;html=1;exitX=1;exitY=0.75;exitDx=0;exitDy=0;" parent="1" source="eI0seqku75HwyaSV5OBJ-18" target="eI0seqku75HwyaSV5OBJ-30" edge="1">
          <mxGeometry relative="1" as="geometry" />
        </mxCell>
        <mxCell id="eI0seqku75HwyaSV5OBJ-18" value="Megpróbálod elkerülni." style="whiteSpace=wrap;html=1;rounded=0;" parent="1" vertex="1">
          <mxGeometry x="1520" y="-3900" width="120" height="60" as="geometry" />
        </mxCell>
        <mxCell id="eI0seqku75HwyaSV5OBJ-42" value="" style="edgeStyle=orthogonalEdgeStyle;rounded=0;orthogonalLoop=1;jettySize=auto;html=1;" parent="1" source="eI0seqku75HwyaSV5OBJ-20" target="eI0seqku75HwyaSV5OBJ-41" edge="1">
          <mxGeometry relative="1" as="geometry" />
        </mxCell>
        <mxCell id="eI0seqku75HwyaSV5OBJ-44" value="" style="edgeStyle=orthogonalEdgeStyle;rounded=0;orthogonalLoop=1;jettySize=auto;html=1;" parent="1" source="eI0seqku75HwyaSV5OBJ-20" target="eI0seqku75HwyaSV5OBJ-43" edge="1">
          <mxGeometry relative="1" as="geometry" />
        </mxCell>
        <mxCell id="eI0seqku75HwyaSV5OBJ-46" value="" style="edgeStyle=orthogonalEdgeStyle;rounded=0;orthogonalLoop=1;jettySize=auto;html=1;" parent="1" source="eI0seqku75HwyaSV5OBJ-20" target="eI0seqku75HwyaSV5OBJ-45" edge="1">
          <mxGeometry relative="1" as="geometry" />
        </mxCell>
        <mxCell id="eI0seqku75HwyaSV5OBJ-20" value="Lehúzod" style="whiteSpace=wrap;html=1;rounded=0;" parent="1" vertex="1">
          <mxGeometry x="910" y="-3730" width="120" height="60" as="geometry" />
        </mxCell>
        <mxCell id="eI0seqku75HwyaSV5OBJ-54" value="" style="edgeStyle=orthogonalEdgeStyle;rounded=0;orthogonalLoop=1;jettySize=auto;html=1;" parent="1" source="eI0seqku75HwyaSV5OBJ-22" target="eI0seqku75HwyaSV5OBJ-53" edge="1">
          <mxGeometry relative="1" as="geometry" />
        </mxCell>
        <mxCell id="eI0seqku75HwyaSV5OBJ-56" value="" style="edgeStyle=orthogonalEdgeStyle;rounded=0;orthogonalLoop=1;jettySize=auto;html=1;" parent="1" source="eI0seqku75HwyaSV5OBJ-22" target="eI0seqku75HwyaSV5OBJ-55" edge="1">
          <mxGeometry relative="1" as="geometry" />
        </mxCell>
        <mxCell id="eI0seqku75HwyaSV5OBJ-22" value="Kérsz tőle kaját" style="whiteSpace=wrap;html=1;rounded=0;" parent="1" vertex="1">
          <mxGeometry x="1040" y="-3730" width="120" height="60" as="geometry" />
        </mxCell>
        <mxCell id="eI0seqku75HwyaSV5OBJ-37" value="" style="edgeStyle=orthogonalEdgeStyle;rounded=0;orthogonalLoop=1;jettySize=auto;html=1;" parent="1" source="eI0seqku75HwyaSV5OBJ-26" target="eI0seqku75HwyaSV5OBJ-36" edge="1">
          <mxGeometry relative="1" as="geometry">
            <Array as="points">
              <mxPoint x="1230" y="-3620" />
              <mxPoint x="1230" y="-3620" />
            </Array>
          </mxGeometry>
        </mxCell>
        <mxCell id="eaBGvAUoTCd1ScwMtzOl-11" value="" style="edgeStyle=orthogonalEdgeStyle;rounded=0;orthogonalLoop=1;jettySize=auto;html=1;" parent="1" source="eI0seqku75HwyaSV5OBJ-26" target="eaBGvAUoTCd1ScwMtzOl-10" edge="1">
          <mxGeometry relative="1" as="geometry" />
        </mxCell>
        <mxCell id="eI0seqku75HwyaSV5OBJ-26" value="Beszólsz neki, hogy hallgasson valami normális nótát" style="rounded=0;whiteSpace=wrap;html=1;" parent="1" vertex="1">
          <mxGeometry x="1170" y="-3730" width="120" height="60" as="geometry" />
        </mxCell>
        <mxCell id="eI0seqku75HwyaSV5OBJ-39" value="" style="edgeStyle=orthogonalEdgeStyle;rounded=0;orthogonalLoop=1;jettySize=auto;html=1;" parent="1" source="eI0seqku75HwyaSV5OBJ-28" target="eI0seqku75HwyaSV5OBJ-38" edge="1">
          <mxGeometry relative="1" as="geometry" />
        </mxCell>
        <mxCell id="eI0seqku75HwyaSV5OBJ-28" value="Adsz&amp;nbsp; neki egy százast(-100 Ft)" style="whiteSpace=wrap;html=1;rounded=0;" parent="1" vertex="1">
          <mxGeometry x="1410" y="-3740" width="120" height="60" as="geometry" />
        </mxCell>
        <mxCell id="eaBGvAUoTCd1ScwMtzOl-4" value="" style="edgeStyle=orthogonalEdgeStyle;rounded=0;orthogonalLoop=1;jettySize=auto;html=1;entryX=1.008;entryY=0.633;entryDx=0;entryDy=0;entryPerimeter=0;" parent="1" source="eI0seqku75HwyaSV5OBJ-30" target="eI0seqku75HwyaSV5OBJ-64" edge="1">
          <mxGeometry relative="1" as="geometry">
            <mxPoint x="1710" y="-3600" as="targetPoint" />
          </mxGeometry>
        </mxCell>
        <mxCell id="eI0seqku75HwyaSV5OBJ-30" value="Odaköszönt neked, de nem foglalkoztál vele. Később ezt lehet megbánod" style="whiteSpace=wrap;html=1;rounded=0;" parent="1" vertex="1">
          <mxGeometry x="1650" y="-3740" width="120" height="60" as="geometry" />
        </mxCell>
        <mxCell id="eaBGvAUoTCd1ScwMtzOl-16" value="" style="edgeStyle=orthogonalEdgeStyle;rounded=0;orthogonalLoop=1;jettySize=auto;html=1;" parent="1" source="eI0seqku75HwyaSV5OBJ-36" edge="1">
          <mxGeometry relative="1" as="geometry">
            <mxPoint x="1280" y="-3160" as="targetPoint" />
          </mxGeometry>
        </mxCell>
        <mxCell id="eI0seqku75HwyaSV5OBJ-36" value="Nagyot nevetett rajta" style="whiteSpace=wrap;html=1;rounded=0;" parent="1" vertex="1">
          <mxGeometry x="1140" y="-3600" width="120" height="60" as="geometry" />
        </mxCell>
        <mxCell id="eI0seqku75HwyaSV5OBJ-65" value="" style="edgeStyle=orthogonalEdgeStyle;rounded=0;orthogonalLoop=1;jettySize=auto;html=1;" parent="1" source="eI0seqku75HwyaSV5OBJ-38" target="eI0seqku75HwyaSV5OBJ-64" edge="1">
          <mxGeometry relative="1" as="geometry" />
        </mxCell>
        <mxCell id="eI0seqku75HwyaSV5OBJ-38" value="&quot;Köszönöm szép testvérem, ígérem ezt nem fogom elfelejteni&quot;" style="whiteSpace=wrap;html=1;rounded=0;" parent="1" vertex="1">
          <mxGeometry x="1440" y="-3610" width="120" height="60" as="geometry" />
        </mxCell>
        <mxCell id="eI0seqku75HwyaSV5OBJ-47" value="" style="edgeStyle=orthogonalEdgeStyle;rounded=0;orthogonalLoop=1;jettySize=auto;html=1;" parent="1" source="eI0seqku75HwyaSV5OBJ-40" target="eI0seqku75HwyaSV5OBJ-43" edge="1">
          <mxGeometry relative="1" as="geometry" />
        </mxCell>
        <mxCell id="eI0seqku75HwyaSV5OBJ-49" value="" style="edgeStyle=orthogonalEdgeStyle;rounded=0;orthogonalLoop=1;jettySize=auto;html=1;" parent="1" source="eI0seqku75HwyaSV5OBJ-40" edge="1">
          <mxGeometry relative="1" as="geometry">
            <mxPoint x="950" y="-3520" as="targetPoint" />
          </mxGeometry>
        </mxCell>
        <mxCell id="eI0seqku75HwyaSV5OBJ-51" value="" style="edgeStyle=orthogonalEdgeStyle;rounded=0;orthogonalLoop=1;jettySize=auto;html=1;" parent="1" source="eI0seqku75HwyaSV5OBJ-40" edge="1">
          <mxGeometry relative="1" as="geometry">
            <mxPoint x="710" y="-3520" as="targetPoint" />
          </mxGeometry>
        </mxCell>
        <mxCell id="eaBGvAUoTCd1ScwMtzOl-161" value="" style="edgeStyle=none;rounded=0;orthogonalLoop=1;jettySize=auto;html=1;entryX=0.142;entryY=0.975;entryDx=0;entryDy=0;entryPerimeter=0;" parent="1" target="eI0seqku75HwyaSV5OBJ-64" edge="1">
          <mxGeometry relative="1" as="geometry">
            <mxPoint x="1420" y="-3060" as="targetPoint" />
            <Array as="points">
              <mxPoint x="897.5" y="-3150" />
              <mxPoint x="1370" y="-3080" />
            </Array>
            <mxPoint x="798.1451612903224" y="-3430" as="sourcePoint" />
          </mxGeometry>
        </mxCell>
        <mxCell id="eI0seqku75HwyaSV5OBJ-40" value="&quot;Jáj mó, 150Ft-tal tudlak megáldani, de kotródj a szemem elől.&quot;" style="whiteSpace=wrap;html=1;rounded=0;" parent="1" vertex="1">
          <mxGeometry x="770" y="-3450" width="120" height="60" as="geometry" />
        </mxCell>
        <mxCell id="eI0seqku75HwyaSV5OBJ-41" value="&quot;Csabikám, halljak meg, aggyá mán egy öcsit.&quot;" style="whiteSpace=wrap;html=1;rounded=0;" parent="1" vertex="1">
          <mxGeometry x="650" y="-3580" width="120" height="60" as="geometry" />
        </mxCell>
        <mxCell id="eI0seqku75HwyaSV5OBJ-43" value="&quot;Buszjegyre nem tudsz adni egy 200ast?&quot;" style="whiteSpace=wrap;html=1;rounded=0;" parent="1" vertex="1">
          <mxGeometry x="770" y="-3580" width="120" height="60" as="geometry" />
        </mxCell>
        <mxCell id="eI0seqku75HwyaSV5OBJ-45" value="&quot;Most azonnal pengessél ki egy Rákóczit!&quot;" style="whiteSpace=wrap;html=1;rounded=0;" parent="1" vertex="1">
          <mxGeometry x="890" y="-3580" width="120" height="60" as="geometry" />
        </mxCell>
        <mxCell id="eI0seqku75HwyaSV5OBJ-57" value="" style="edgeStyle=orthogonalEdgeStyle;rounded=0;orthogonalLoop=1;jettySize=auto;html=1;" parent="1" source="eI0seqku75HwyaSV5OBJ-52" target="eI0seqku75HwyaSV5OBJ-55" edge="1">
          <mxGeometry relative="1" as="geometry" />
        </mxCell>
        <mxCell id="eI0seqku75HwyaSV5OBJ-61" value="" style="edgeStyle=orthogonalEdgeStyle;rounded=0;orthogonalLoop=1;jettySize=auto;html=1;" parent="1" source="eI0seqku75HwyaSV5OBJ-52" edge="1">
          <mxGeometry relative="1" as="geometry">
            <mxPoint x="1020" y="-3300" as="targetPoint" />
          </mxGeometry>
        </mxCell>
        <mxCell id="eI0seqku75HwyaSV5OBJ-69" value="" style="edgeStyle=orthogonalEdgeStyle;rounded=0;orthogonalLoop=1;jettySize=auto;html=1;" parent="1" edge="1">
          <mxGeometry relative="1" as="geometry">
            <mxPoint x="1470" y="-3160" as="targetPoint" />
            <mxPoint x="1400" y="-3160" as="sourcePoint" />
          </mxGeometry>
        </mxCell>
        <mxCell id="eI0seqku75HwyaSV5OBJ-52" value="Adott egy sült patkány combot, de lehúzott 200Ft-tal&lt;br&gt;(Éhség - 30%)" style="whiteSpace=wrap;html=1;rounded=0;" parent="1" vertex="1">
          <mxGeometry x="1040" y="-3200" width="120" height="60" as="geometry" />
        </mxCell>
        <mxCell id="eI0seqku75HwyaSV5OBJ-53" value="&quot;Jajj Csabusom, egy túrós batyuval dobjál mán meg &quot;" style="whiteSpace=wrap;html=1;rounded=0;" parent="1" vertex="1">
          <mxGeometry x="960" y="-3360" width="120" height="60" as="geometry" />
        </mxCell>
        <mxCell id="eI0seqku75HwyaSV5OBJ-55" value="&quot;Nincs ételed te fattyú??&quot;" style="whiteSpace=wrap;html=1;rounded=0;" parent="1" vertex="1">
          <mxGeometry x="1110" y="-3360" width="120" height="60" as="geometry" />
        </mxCell>
        <mxCell id="eI0seqku75HwyaSV5OBJ-64" value="Továbbmentél" style="whiteSpace=wrap;html=1;rounded=0;" parent="1" vertex="1">
          <mxGeometry x="1470" y="-3190" width="120" height="60" as="geometry" />
        </mxCell>
        <mxCell id="eI0seqku75HwyaSV5OBJ-82" value="" style="edgeStyle=orthogonalEdgeStyle;rounded=0;orthogonalLoop=1;jettySize=auto;html=1;" parent="1" target="eI0seqku75HwyaSV5OBJ-81" edge="1">
          <mxGeometry relative="1" as="geometry">
            <mxPoint x="1370" y="-2720" as="sourcePoint" />
          </mxGeometry>
        </mxCell>
        <mxCell id="eI0seqku75HwyaSV5OBJ-84" value="" style="edgeStyle=orthogonalEdgeStyle;rounded=0;orthogonalLoop=1;jettySize=auto;html=1;" parent="1" target="eI0seqku75HwyaSV5OBJ-83" edge="1">
          <mxGeometry relative="1" as="geometry">
            <mxPoint x="1370" y="-2720" as="sourcePoint" />
          </mxGeometry>
        </mxCell>
        <mxCell id="eI0seqku75HwyaSV5OBJ-86" value="" style="edgeStyle=orthogonalEdgeStyle;rounded=0;orthogonalLoop=1;jettySize=auto;html=1;" parent="1" source="eI0seqku75HwyaSV5OBJ-81" target="eI0seqku75HwyaSV5OBJ-85" edge="1">
          <mxGeometry relative="1" as="geometry" />
        </mxCell>
        <mxCell id="eI0seqku75HwyaSV5OBJ-81" value="Bemész mannáért" style="whiteSpace=wrap;html=1;rounded=0;" parent="1" vertex="1">
          <mxGeometry x="1200" y="-2570" width="120" height="60" as="geometry" />
        </mxCell>
        <mxCell id="A1ZuuhthlVVNKibYsWye-2" value="" style="edgeStyle=orthogonalEdgeStyle;rounded=0;orthogonalLoop=1;jettySize=auto;html=1;" parent="1" source="eI0seqku75HwyaSV5OBJ-83" target="A1ZuuhthlVVNKibYsWye-1" edge="1">
          <mxGeometry relative="1" as="geometry" />
        </mxCell>
        <mxCell id="eI0seqku75HwyaSV5OBJ-83" value="Maradsz inkább éhesen, mész tovább" style="whiteSpace=wrap;html=1;rounded=0;" parent="1" vertex="1">
          <mxGeometry x="1480" y="-2570" width="120" height="60" as="geometry" />
        </mxCell>
        <mxCell id="eI0seqku75HwyaSV5OBJ-88" value="" style="edgeStyle=orthogonalEdgeStyle;rounded=0;orthogonalLoop=1;jettySize=auto;html=1;" parent="1" source="eI0seqku75HwyaSV5OBJ-85" target="eI0seqku75HwyaSV5OBJ-87" edge="1">
          <mxGeometry relative="1" as="geometry" />
        </mxCell>
        <mxCell id="eI0seqku75HwyaSV5OBJ-85" value="Bementél. Egy kedvesnek tűnő megereszkedett, középkorú nő áll a pultban." style="whiteSpace=wrap;html=1;rounded=0;" parent="1" vertex="1">
          <mxGeometry x="1200" y="-2370" width="120" height="100" as="geometry" />
        </mxCell>
        <mxCell id="eI0seqku75HwyaSV5OBJ-90" value="" style="edgeStyle=orthogonalEdgeStyle;rounded=0;orthogonalLoop=1;jettySize=auto;html=1;" parent="1" source="eI0seqku75HwyaSV5OBJ-87" target="eI0seqku75HwyaSV5OBJ-89" edge="1">
          <mxGeometry relative="1" as="geometry" />
        </mxCell>
        <mxCell id="eI0seqku75HwyaSV5OBJ-92" value="" style="edgeStyle=orthogonalEdgeStyle;rounded=0;orthogonalLoop=1;jettySize=auto;html=1;" parent="1" source="eI0seqku75HwyaSV5OBJ-87" target="eI0seqku75HwyaSV5OBJ-91" edge="1">
          <mxGeometry relative="1" as="geometry" />
        </mxCell>
        <mxCell id="eI0seqku75HwyaSV5OBJ-94" value="" style="edgeStyle=orthogonalEdgeStyle;rounded=0;orthogonalLoop=1;jettySize=auto;html=1;" parent="1" source="eI0seqku75HwyaSV5OBJ-87" target="eI0seqku75HwyaSV5OBJ-93" edge="1">
          <mxGeometry relative="1" as="geometry" />
        </mxCell>
        <mxCell id="eI0seqku75HwyaSV5OBJ-110" value="" style="edgeStyle=orthogonalEdgeStyle;rounded=0;orthogonalLoop=1;jettySize=auto;html=1;" parent="1" source="eI0seqku75HwyaSV5OBJ-87" target="eI0seqku75HwyaSV5OBJ-109" edge="1">
          <mxGeometry relative="1" as="geometry" />
        </mxCell>
        <mxCell id="eI0seqku75HwyaSV5OBJ-87" value="&quot;Mit szeretnél aranyom?&quot;" style="whiteSpace=wrap;html=1;rounded=0;" parent="1" vertex="1">
          <mxGeometry x="1200" y="-2170" width="120" height="60" as="geometry" />
        </mxCell>
        <mxCell id="eI0seqku75HwyaSV5OBJ-98" value="" style="edgeStyle=orthogonalEdgeStyle;rounded=0;orthogonalLoop=1;jettySize=auto;html=1;" parent="1" source="eI0seqku75HwyaSV5OBJ-89" target="eI0seqku75HwyaSV5OBJ-97" edge="1">
          <mxGeometry relative="1" as="geometry" />
        </mxCell>
        <mxCell id="eaBGvAUoTCd1ScwMtzOl-46" value="" style="edgeStyle=orthogonalEdgeStyle;rounded=0;orthogonalLoop=1;jettySize=auto;html=1;" parent="1" source="eI0seqku75HwyaSV5OBJ-89" target="eaBGvAUoTCd1ScwMtzOl-45" edge="1">
          <mxGeometry relative="1" as="geometry" />
        </mxCell>
        <mxCell id="eI0seqku75HwyaSV5OBJ-89" value="&quot;Ide a kakaóscsigát, te ánuszbogyó!&quot;" style="whiteSpace=wrap;html=1;rounded=0;" parent="1" vertex="1">
          <mxGeometry x="950" y="-2060" width="120" height="60" as="geometry" />
        </mxCell>
        <mxCell id="eI0seqku75HwyaSV5OBJ-100" value="" style="edgeStyle=orthogonalEdgeStyle;rounded=0;orthogonalLoop=1;jettySize=auto;html=1;" parent="1" source="eI0seqku75HwyaSV5OBJ-91" target="eI0seqku75HwyaSV5OBJ-99" edge="1">
          <mxGeometry relative="1" as="geometry" />
        </mxCell>
        <mxCell id="eI0seqku75HwyaSV5OBJ-91" value="&quot;5dkg parizert meg két zsemlyét szeretnék!&quot;" style="whiteSpace=wrap;html=1;rounded=0;" parent="1" vertex="1">
          <mxGeometry x="1090" y="-2060" width="120" height="60" as="geometry" />
        </mxCell>
        <mxCell id="eI0seqku75HwyaSV5OBJ-102" value="" style="edgeStyle=orthogonalEdgeStyle;rounded=0;orthogonalLoop=1;jettySize=auto;html=1;" parent="1" source="eI0seqku75HwyaSV5OBJ-93" target="eI0seqku75HwyaSV5OBJ-101" edge="1">
          <mxGeometry relative="1" as="geometry" />
        </mxCell>
        <mxCell id="eI0seqku75HwyaSV5OBJ-93" value="&quot;Van valami ingyen?&quot;" style="whiteSpace=wrap;html=1;rounded=0;" parent="1" vertex="1">
          <mxGeometry x="1290" y="-2060" width="120" height="60" as="geometry" />
        </mxCell>
        <mxCell id="eI0seqku75HwyaSV5OBJ-97" value="&quot;Takarodj a boltomból vagy hívom a fejeseket!&quot;" style="whiteSpace=wrap;html=1;rounded=0;" parent="1" vertex="1">
          <mxGeometry x="950" y="-1850" width="120" height="60" as="geometry" />
        </mxCell>
        <mxCell id="eI0seqku75HwyaSV5OBJ-99" value="(-250ft)&lt;br&gt;(+40% éhség)" style="whiteSpace=wrap;html=1;rounded=0;" parent="1" vertex="1">
          <mxGeometry x="1090" y="-1850" width="120" height="60" as="geometry" />
        </mxCell>
        <mxCell id="eI0seqku75HwyaSV5OBJ-104" value="" style="edgeStyle=orthogonalEdgeStyle;rounded=0;orthogonalLoop=1;jettySize=auto;html=1;" parent="1" source="eI0seqku75HwyaSV5OBJ-101" edge="1">
          <mxGeometry relative="1" as="geometry">
            <mxPoint x="1160" y="-2000" as="targetPoint" />
          </mxGeometry>
        </mxCell>
        <mxCell id="eI0seqku75HwyaSV5OBJ-106" value="" style="edgeStyle=orthogonalEdgeStyle;rounded=0;orthogonalLoop=1;jettySize=auto;html=1;" parent="1" source="eI0seqku75HwyaSV5OBJ-101" edge="1">
          <mxGeometry relative="1" as="geometry">
            <mxPoint x="1030" y="-2000" as="targetPoint" />
          </mxGeometry>
        </mxCell>
        <mxCell id="eI0seqku75HwyaSV5OBJ-114" value="" style="edgeStyle=orthogonalEdgeStyle;rounded=0;orthogonalLoop=1;jettySize=auto;html=1;" parent="1" source="eI0seqku75HwyaSV5OBJ-101" edge="1">
          <mxGeometry relative="1" as="geometry">
            <mxPoint x="1500" y="-2000" as="targetPoint" />
          </mxGeometry>
        </mxCell>
        <mxCell id="eI0seqku75HwyaSV5OBJ-101" value="&quot;Nincs&quot;" style="whiteSpace=wrap;html=1;rounded=0;" parent="1" vertex="1">
          <mxGeometry x="1290" y="-1920" width="120" height="60" as="geometry" />
        </mxCell>
        <mxCell id="eI0seqku75HwyaSV5OBJ-109" value="Szó nélkül kimész" style="whiteSpace=wrap;html=1;rounded=0;" parent="1" vertex="1">
          <mxGeometry x="1440" y="-2060" width="120" height="60" as="geometry" />
        </mxCell>
        <mxCell id="A1ZuuhthlVVNKibYsWye-11" value="" style="edgeStyle=orthogonalEdgeStyle;rounded=0;orthogonalLoop=1;jettySize=auto;html=1;" parent="1" source="A1ZuuhthlVVNKibYsWye-1" target="A1ZuuhthlVVNKibYsWye-10" edge="1">
          <mxGeometry relative="1" as="geometry" />
        </mxCell>
        <mxCell id="CUcIam9u_VTtIWiymEvo-9" value="" style="edgeStyle=orthogonalEdgeStyle;rounded=0;orthogonalLoop=1;jettySize=auto;html=1;" parent="1" source="A1ZuuhthlVVNKibYsWye-1" target="CUcIam9u_VTtIWiymEvo-8" edge="1">
          <mxGeometry relative="1" as="geometry" />
        </mxCell>
        <mxCell id="A1ZuuhthlVVNKibYsWye-1" value="Sikeresen kiértél az&amp;nbsp; aluljáróból, átkeltél a fehér-fekete felfestésen. Ezután a Városháza mentén meglátsz egy hobót, aki kiszúrt téged, kezében egy &quot;Kucci&quot; parfümmel." style="whiteSpace=wrap;html=1;rounded=0;" parent="1" vertex="1">
          <mxGeometry x="1420" y="-1640" width="400" height="130" as="geometry" />
        </mxCell>
        <mxCell id="A1ZuuhthlVVNKibYsWye-13" value="" style="edgeStyle=orthogonalEdgeStyle;rounded=0;orthogonalLoop=1;jettySize=auto;html=1;" parent="1" source="A1ZuuhthlVVNKibYsWye-10" target="A1ZuuhthlVVNKibYsWye-12" edge="1">
          <mxGeometry relative="1" as="geometry" />
        </mxCell>
        <mxCell id="A1ZuuhthlVVNKibYsWye-15" value="" style="edgeStyle=orthogonalEdgeStyle;rounded=0;orthogonalLoop=1;jettySize=auto;html=1;" parent="1" source="A1ZuuhthlVVNKibYsWye-10" target="A1ZuuhthlVVNKibYsWye-14" edge="1">
          <mxGeometry relative="1" as="geometry" />
        </mxCell>
        <mxCell id="A1ZuuhthlVVNKibYsWye-16" value="" style="edgeStyle=orthogonalEdgeStyle;rounded=0;orthogonalLoop=1;jettySize=auto;html=1;" parent="1" source="A1ZuuhthlVVNKibYsWye-10" target="A1ZuuhthlVVNKibYsWye-14" edge="1">
          <mxGeometry relative="1" as="geometry" />
        </mxCell>
        <mxCell id="A1ZuuhthlVVNKibYsWye-17" value="" style="edgeStyle=orthogonalEdgeStyle;rounded=0;orthogonalLoop=1;jettySize=auto;html=1;" parent="1" source="A1ZuuhthlVVNKibYsWye-10" target="A1ZuuhthlVVNKibYsWye-14" edge="1">
          <mxGeometry relative="1" as="geometry" />
        </mxCell>
        <mxCell id="A1ZuuhthlVVNKibYsWye-19" value="" style="edgeStyle=orthogonalEdgeStyle;rounded=0;orthogonalLoop=1;jettySize=auto;html=1;" parent="1" source="A1ZuuhthlVVNKibYsWye-10" target="A1ZuuhthlVVNKibYsWye-18" edge="1">
          <mxGeometry relative="1" as="geometry" />
        </mxCell>
        <mxCell id="A1ZuuhthlVVNKibYsWye-21" value="" style="edgeStyle=orthogonalEdgeStyle;rounded=0;orthogonalLoop=1;jettySize=auto;html=1;" parent="1" source="A1ZuuhthlVVNKibYsWye-10" target="A1ZuuhthlVVNKibYsWye-20" edge="1">
          <mxGeometry relative="1" as="geometry" />
        </mxCell>
        <mxCell id="A1ZuuhthlVVNKibYsWye-10" value="&quot;Szép napot honfitárs, szia uram, parfüm érdekel?&quot;" style="whiteSpace=wrap;html=1;rounded=0;" parent="1" vertex="1">
          <mxGeometry x="1560" y="-1425" width="120" height="60" as="geometry" />
        </mxCell>
        <mxCell id="A1ZuuhthlVVNKibYsWye-23" value="" style="edgeStyle=orthogonalEdgeStyle;rounded=0;orthogonalLoop=1;jettySize=auto;html=1;" parent="1" source="A1ZuuhthlVVNKibYsWye-12" target="A1ZuuhthlVVNKibYsWye-22" edge="1">
          <mxGeometry relative="1" as="geometry" />
        </mxCell>
        <mxCell id="A1ZuuhthlVVNKibYsWye-12" value="&quot;Menjen innen maga hobó!!!&quot;" style="whiteSpace=wrap;html=1;rounded=0;" parent="1" vertex="1">
          <mxGeometry x="1280" y="-1280" width="120" height="70" as="geometry" />
        </mxCell>
        <mxCell id="A1ZuuhthlVVNKibYsWye-27" value="" style="edgeStyle=orthogonalEdgeStyle;rounded=0;orthogonalLoop=1;jettySize=auto;html=1;" parent="1" source="A1ZuuhthlVVNKibYsWye-14" target="A1ZuuhthlVVNKibYsWye-26" edge="1">
          <mxGeometry relative="1" as="geometry" />
        </mxCell>
        <mxCell id="A1ZuuhthlVVNKibYsWye-14" value="&quot;Sajnálom uram de vágtázok hazafele&quot;" style="whiteSpace=wrap;html=1;rounded=0;" parent="1" vertex="1">
          <mxGeometry x="1500" y="-1280" width="120" height="60" as="geometry" />
        </mxCell>
        <mxCell id="A1ZuuhthlVVNKibYsWye-29" value="" style="edgeStyle=orthogonalEdgeStyle;rounded=0;orthogonalLoop=1;jettySize=auto;html=1;" parent="1" source="A1ZuuhthlVVNKibYsWye-18" target="A1ZuuhthlVVNKibYsWye-28" edge="1">
          <mxGeometry relative="1" as="geometry" />
        </mxCell>
        <mxCell id="A1ZuuhthlVVNKibYsWye-18" value="&quot;Add ide a suskád, te hobó!&quot;" style="whiteSpace=wrap;html=1;rounded=0;" parent="1" vertex="1">
          <mxGeometry x="1625" y="-1280" width="120" height="60" as="geometry" />
        </mxCell>
        <mxCell id="jfBG-qEeaqnFrTGpLrWy-8" value="" style="edgeStyle=orthogonalEdgeStyle;rounded=0;orthogonalLoop=1;jettySize=auto;html=1;" parent="1" source="A1ZuuhthlVVNKibYsWye-20" target="A1ZuuhthlVVNKibYsWye-24" edge="1">
          <mxGeometry relative="1" as="geometry">
            <mxPoint x="2060" y="-1130" as="targetPoint" />
          </mxGeometry>
        </mxCell>
        <mxCell id="A1ZuuhthlVVNKibYsWye-20" value="&quot;Érdekelne&quot;" style="whiteSpace=wrap;html=1;rounded=0;" parent="1" vertex="1">
          <mxGeometry x="2000" y="-1300" width="120" height="60" as="geometry" />
        </mxCell>
        <mxCell id="A1ZuuhthlVVNKibYsWye-33" value="" style="edgeStyle=orthogonalEdgeStyle;rounded=0;orthogonalLoop=1;jettySize=auto;html=1;" parent="1" source="A1ZuuhthlVVNKibYsWye-22" target="A1ZuuhthlVVNKibYsWye-32" edge="1">
          <mxGeometry relative="1" as="geometry" />
        </mxCell>
        <mxCell id="A1ZuuhthlVVNKibYsWye-22" value="A bácsi mérges lett, homloklebenyen rúgott és elvette az összes pénzed!" style="whiteSpace=wrap;html=1;rounded=0;" parent="1" vertex="1">
          <mxGeometry x="1280" y="-1020" width="120" height="60" as="geometry" />
        </mxCell>
        <mxCell id="A1ZuuhthlVVNKibYsWye-24" value="Megveszed a parfümöt" style="whiteSpace=wrap;html=1;rounded=0;" parent="1" vertex="1">
          <mxGeometry x="2040" y="-1040" width="300" height="60" as="geometry" />
        </mxCell>
        <mxCell id="A1ZuuhthlVVNKibYsWye-37" value="" style="edgeStyle=orthogonalEdgeStyle;rounded=0;orthogonalLoop=1;jettySize=auto;html=1;" parent="1" source="A1ZuuhthlVVNKibYsWye-26" target="A1ZuuhthlVVNKibYsWye-36" edge="1">
          <mxGeometry relative="1" as="geometry" />
        </mxCell>
        <mxCell id="A1ZuuhthlVVNKibYsWye-26" value="Morcos fejet vágott, de elfogadta és továbbállt" style="whiteSpace=wrap;html=1;rounded=0;" parent="1" vertex="1">
          <mxGeometry x="1500" y="-1140" width="120" height="60" as="geometry" />
        </mxCell>
        <mxCell id="A1ZuuhthlVVNKibYsWye-35" value="" style="edgeStyle=orthogonalEdgeStyle;rounded=0;orthogonalLoop=1;jettySize=auto;html=1;" parent="1" source="A1ZuuhthlVVNKibYsWye-28" target="A1ZuuhthlVVNKibYsWye-34" edge="1">
          <mxGeometry relative="1" as="geometry" />
        </mxCell>
        <mxCell id="A1ZuuhthlVVNKibYsWye-28" value="&quot;Itt egy ötszázas csak ne kerülj többet a szemem elé te csúf makákó!&quot;" style="whiteSpace=wrap;html=1;rounded=0;" parent="1" vertex="1">
          <mxGeometry x="1625" y="-1140" width="120" height="60" as="geometry" />
        </mxCell>
        <mxCell id="A1ZuuhthlVVNKibYsWye-32" value="Vesztettél!" style="whiteSpace=wrap;html=1;rounded=0;" parent="1" vertex="1">
          <mxGeometry x="1280" y="-880" width="120" height="60" as="geometry" />
        </mxCell>
        <mxCell id="A1ZuuhthlVVNKibYsWye-39" value="" style="edgeStyle=orthogonalEdgeStyle;rounded=0;orthogonalLoop=1;jettySize=auto;html=1;" parent="1" source="A1ZuuhthlVVNKibYsWye-34" edge="1">
          <mxGeometry relative="1" as="geometry">
            <mxPoint x="1640" y="-720" as="targetPoint" />
          </mxGeometry>
        </mxCell>
        <mxCell id="A1ZuuhthlVVNKibYsWye-34" value="(+500Ft)" style="whiteSpace=wrap;html=1;rounded=0;" parent="1" vertex="1">
          <mxGeometry x="1625" y="-1000" width="120" height="60" as="geometry" />
        </mxCell>
        <mxCell id="A1ZuuhthlVVNKibYsWye-41" value="" style="edgeStyle=orthogonalEdgeStyle;rounded=0;orthogonalLoop=1;jettySize=auto;html=1;" parent="1" source="A1ZuuhthlVVNKibYsWye-36" target="A1ZuuhthlVVNKibYsWye-40" edge="1">
          <mxGeometry relative="1" as="geometry" />
        </mxCell>
        <mxCell id="A1ZuuhthlVVNKibYsWye-36" value="Ezután átkeltél mégegy zebrán, eddig nem ért veszély forrás eme görönyös úton!&lt;br&gt;Megérkeztél a Baross út elejére." style="whiteSpace=wrap;html=1;rounded=0;" parent="1" vertex="1">
          <mxGeometry x="1410" y="-720" width="460" height="60" as="geometry" />
        </mxCell>
        <mxCell id="A1ZuuhthlVVNKibYsWye-45" value="" style="edgeStyle=orthogonalEdgeStyle;rounded=0;orthogonalLoop=1;jettySize=auto;html=1;" parent="1" source="A1ZuuhthlVVNKibYsWye-40" target="A1ZuuhthlVVNKibYsWye-44" edge="1">
          <mxGeometry relative="1" as="geometry" />
        </mxCell>
        <mxCell id="A1ZuuhthlVVNKibYsWye-47" value="" style="edgeStyle=orthogonalEdgeStyle;rounded=0;orthogonalLoop=1;jettySize=auto;html=1;" parent="1" source="A1ZuuhthlVVNKibYsWye-40" target="A1ZuuhthlVVNKibYsWye-46" edge="1">
          <mxGeometry relative="1" as="geometry" />
        </mxCell>
        <mxCell id="A1ZuuhthlVVNKibYsWye-40" value="Találtál egy kétszázast, mire felnéztél, egy Adyvárosi lakótelepi szökevényt láttál meg.(+200Ft)" style="whiteSpace=wrap;html=1;rounded=0;" parent="1" vertex="1">
          <mxGeometry x="1490" y="-580" width="300" height="60" as="geometry" />
        </mxCell>
        <mxCell id="A1ZuuhthlVVNKibYsWye-49" value="" style="edgeStyle=orthogonalEdgeStyle;rounded=0;orthogonalLoop=1;jettySize=auto;html=1;" parent="1" source="A1ZuuhthlVVNKibYsWye-44" target="A1ZuuhthlVVNKibYsWye-48" edge="1">
          <mxGeometry relative="1" as="geometry" />
        </mxCell>
        <mxCell id="A1ZuuhthlVVNKibYsWye-51" value="" style="edgeStyle=orthogonalEdgeStyle;rounded=0;orthogonalLoop=1;jettySize=auto;html=1;" parent="1" source="A1ZuuhthlVVNKibYsWye-44" target="A1ZuuhthlVVNKibYsWye-50" edge="1">
          <mxGeometry relative="1" as="geometry" />
        </mxCell>
        <mxCell id="A1ZuuhthlVVNKibYsWye-44" value="Megközelíted" style="whiteSpace=wrap;html=1;rounded=0;" parent="1" vertex="1">
          <mxGeometry x="1350" y="-370" width="120" height="60" as="geometry" />
        </mxCell>
        <mxCell id="A1ZuuhthlVVNKibYsWye-63" value="" style="edgeStyle=orthogonalEdgeStyle;rounded=0;orthogonalLoop=1;jettySize=auto;html=1;" parent="1" source="A1ZuuhthlVVNKibYsWye-46" edge="1">
          <mxGeometry relative="1" as="geometry">
            <mxPoint x="1510" y="150" as="targetPoint" />
            <Array as="points">
              <mxPoint x="1761" y="-340" />
              <mxPoint x="1761" y="140" />
            </Array>
          </mxGeometry>
        </mxCell>
        <mxCell id="A1ZuuhthlVVNKibYsWye-46" value="Figyelmen kívül hagyod" style="whiteSpace=wrap;html=1;rounded=0;" parent="1" vertex="1">
          <mxGeometry x="1820" y="-370" width="120" height="60" as="geometry" />
        </mxCell>
        <mxCell id="A1ZuuhthlVVNKibYsWye-57" value="" style="edgeStyle=orthogonalEdgeStyle;rounded=0;orthogonalLoop=1;jettySize=auto;html=1;" parent="1" source="A1ZuuhthlVVNKibYsWye-48" target="A1ZuuhthlVVNKibYsWye-56" edge="1">
          <mxGeometry relative="1" as="geometry" />
        </mxCell>
        <mxCell id="A1ZuuhthlVVNKibYsWye-48" value="&quot;Aggyál mán egy kis pénzt, ne legyél irigy&quot;" style="whiteSpace=wrap;html=1;rounded=0;" parent="1" vertex="1">
          <mxGeometry x="1220" y="-280" width="120" height="60" as="geometry" />
        </mxCell>
        <mxCell id="A1ZuuhthlVVNKibYsWye-53" value="" style="edgeStyle=orthogonalEdgeStyle;rounded=0;orthogonalLoop=1;jettySize=auto;html=1;" parent="1" source="A1ZuuhthlVVNKibYsWye-50" target="A1ZuuhthlVVNKibYsWye-52" edge="1">
          <mxGeometry relative="1" as="geometry" />
        </mxCell>
        <mxCell id="A1ZuuhthlVVNKibYsWye-50" value="Leosztasz neki egy parasztlengőt, mert nem tetszik a kiállása" style="whiteSpace=wrap;html=1;rounded=0;" parent="1" vertex="1">
          <mxGeometry x="1490" y="-280" width="120" height="60" as="geometry" />
        </mxCell>
        <mxCell id="A1ZuuhthlVVNKibYsWye-55" value="" style="edgeStyle=orthogonalEdgeStyle;rounded=0;orthogonalLoop=1;jettySize=auto;html=1;" parent="1" source="A1ZuuhthlVVNKibYsWye-52" target="A1ZuuhthlVVNKibYsWye-54" edge="1">
          <mxGeometry relative="1" as="geometry" />
        </mxCell>
        <mxCell id="jfBG-qEeaqnFrTGpLrWy-2" value="" style="edgeStyle=orthogonalEdgeStyle;rounded=0;orthogonalLoop=1;jettySize=auto;html=1;" parent="1" source="A1ZuuhthlVVNKibYsWye-52" target="jfBG-qEeaqnFrTGpLrWy-1" edge="1">
          <mxGeometry relative="1" as="geometry" />
        </mxCell>
        <mxCell id="A1ZuuhthlVVNKibYsWye-52" value="Ezt meglátták a városrendészek, és bevittek" style="whiteSpace=wrap;html=1;rounded=0;" parent="1" vertex="1">
          <mxGeometry x="1490" y="-170" width="120" height="60" as="geometry" />
        </mxCell>
        <mxCell id="jfBG-qEeaqnFrTGpLrWy-4" value="" style="edgeStyle=orthogonalEdgeStyle;rounded=0;orthogonalLoop=1;jettySize=auto;html=1;" parent="1" source="A1ZuuhthlVVNKibYsWye-54" edge="1">
          <mxGeometry relative="1" as="geometry">
            <mxPoint x="1505" y="250" as="targetPoint" />
          </mxGeometry>
        </mxCell>
        <mxCell id="A1ZuuhthlVVNKibYsWye-54" value="Lefújod őket parfümmel, ha van" style="whiteSpace=wrap;html=1;rounded=0;" parent="1" vertex="1">
          <mxGeometry x="1490" y="-30" width="120" height="60" as="geometry" />
        </mxCell>
        <mxCell id="A1ZuuhthlVVNKibYsWye-59" value="" style="edgeStyle=orthogonalEdgeStyle;rounded=0;orthogonalLoop=1;jettySize=auto;html=1;" parent="1" source="A1ZuuhthlVVNKibYsWye-56" target="A1ZuuhthlVVNKibYsWye-58" edge="1">
          <mxGeometry relative="1" as="geometry" />
        </mxCell>
        <mxCell id="A1ZuuhthlVVNKibYsWye-56" value="&quot;Látom nem vagy egy kobold ezért megszánlak.(+150Ft)&quot;" style="whiteSpace=wrap;html=1;rounded=0;" parent="1" vertex="1">
          <mxGeometry x="1220" y="-30" width="120" height="60" as="geometry" />
        </mxCell>
        <mxCell id="A1ZuuhthlVVNKibYsWye-61" value="" style="edgeStyle=orthogonalEdgeStyle;rounded=0;orthogonalLoop=1;jettySize=auto;html=1;" parent="1" target="A1ZuuhthlVVNKibYsWye-60" edge="1">
          <mxGeometry relative="1" as="geometry">
            <mxPoint x="1505" y="250" as="sourcePoint" />
          </mxGeometry>
        </mxCell>
        <mxCell id="A1ZuuhthlVVNKibYsWye-58" value="Megköszönöd majd továbbmész" style="whiteSpace=wrap;html=1;rounded=0;" parent="1" vertex="1">
          <mxGeometry x="1220" y="110" width="120" height="60" as="geometry" />
        </mxCell>
        <mxCell id="A1ZuuhthlVVNKibYsWye-65" value="" style="edgeStyle=orthogonalEdgeStyle;rounded=0;orthogonalLoop=1;jettySize=auto;html=1;" parent="1" source="A1ZuuhthlVVNKibYsWye-60" target="A1ZuuhthlVVNKibYsWye-64" edge="1">
          <mxGeometry relative="1" as="geometry" />
        </mxCell>
        <mxCell id="A1ZuuhthlVVNKibYsWye-69" value="" style="edgeStyle=orthogonalEdgeStyle;rounded=0;orthogonalLoop=1;jettySize=auto;html=1;" parent="1" source="A1ZuuhthlVVNKibYsWye-60" target="A1ZuuhthlVVNKibYsWye-68" edge="1">
          <mxGeometry relative="1" as="geometry" />
        </mxCell>
        <mxCell id="A1ZuuhthlVVNKibYsWye-73" value="" style="edgeStyle=orthogonalEdgeStyle;rounded=0;orthogonalLoop=1;jettySize=auto;html=1;" parent="1" source="A1ZuuhthlVVNKibYsWye-60" target="A1ZuuhthlVVNKibYsWye-72" edge="1">
          <mxGeometry relative="1" as="geometry" />
        </mxCell>
        <mxCell id="A1ZuuhthlVVNKibYsWye-60" value="Továbbmentél majd probléma nélkül eljutottál a mekiig, az erős csontozatú emberek törzshelyére." style="whiteSpace=wrap;html=1;rounded=0;" parent="1" vertex="1">
          <mxGeometry x="1360" y="250" width="290" height="60" as="geometry" />
        </mxCell>
        <mxCell id="A1ZuuhthlVVNKibYsWye-67" value="" style="edgeStyle=orthogonalEdgeStyle;rounded=0;orthogonalLoop=1;jettySize=auto;html=1;" parent="1" source="A1ZuuhthlVVNKibYsWye-64" target="A1ZuuhthlVVNKibYsWye-66" edge="1">
          <mxGeometry relative="1" as="geometry" />
        </mxCell>
        <mxCell id="A1ZuuhthlVVNKibYsWye-64" value="Ha - nincsen meg az 1400Ft, és annó Csabikának adtál pénzt." style="whiteSpace=wrap;html=1;rounded=0;" parent="1" vertex="1">
          <mxGeometry x="1330" y="390" width="350" height="60" as="geometry" />
        </mxCell>
        <mxCell id="A1ZuuhthlVVNKibYsWye-66" value="Az étterem előtt meglátod Csabikát aki ígéretét betartva kiegészített téged." style="whiteSpace=wrap;html=1;rounded=0;" parent="1" vertex="1">
          <mxGeometry x="1430" y="530" width="150" height="60" as="geometry" />
        </mxCell>
        <mxCell id="A1ZuuhthlVVNKibYsWye-71" value="" style="edgeStyle=orthogonalEdgeStyle;rounded=0;orthogonalLoop=1;jettySize=auto;html=1;" parent="1" source="A1ZuuhthlVVNKibYsWye-68" target="A1ZuuhthlVVNKibYsWye-70" edge="1">
          <mxGeometry relative="1" as="geometry" />
        </mxCell>
        <mxCell id="A1ZuuhthlVVNKibYsWye-68" value="Ha - nincs meg az 1400Ft" style="whiteSpace=wrap;html=1;rounded=0;" parent="1" vertex="1">
          <mxGeometry x="1820" y="390" width="120" height="60" as="geometry" />
        </mxCell>
        <mxCell id="A1ZuuhthlVVNKibYsWye-70" value="Elértél a mekihez biztonságban, de nem volt elég pénzed -&amp;gt; Vesztettél" style="whiteSpace=wrap;html=1;rounded=0;" parent="1" vertex="1">
          <mxGeometry x="1790" y="530" width="210" height="60" as="geometry" />
        </mxCell>
        <mxCell id="A1ZuuhthlVVNKibYsWye-75" value="" style="edgeStyle=orthogonalEdgeStyle;rounded=0;orthogonalLoop=1;jettySize=auto;html=1;" parent="1" source="A1ZuuhthlVVNKibYsWye-72" target="A1ZuuhthlVVNKibYsWye-74" edge="1">
          <mxGeometry relative="1" as="geometry" />
        </mxCell>
        <mxCell id="A1ZuuhthlVVNKibYsWye-72" value="Ha - van 1400Ft" style="whiteSpace=wrap;html=1;rounded=0;" parent="1" vertex="1">
          <mxGeometry x="970" y="400" width="230" height="60" as="geometry" />
        </mxCell>
        <mxCell id="A1ZuuhthlVVNKibYsWye-74" value="Bementél a mekibe és kikérted a kajádat. Játék vége" style="whiteSpace=wrap;html=1;rounded=0;" parent="1" vertex="1">
          <mxGeometry x="960" y="530" width="250" height="60" as="geometry" />
        </mxCell>
        <mxCell id="A1ZuuhthlVVNKibYsWye-76" value="Elindultál a híd irányába, felügetsz a lépcsőn." style="whiteSpace=wrap;html=1;rounded=0;" parent="1" vertex="1">
          <mxGeometry x="2074.62" y="-3750" width="420" height="60" as="geometry" />
        </mxCell>
        <mxCell id="eaBGvAUoTCd1ScwMtzOl-13" value="" style="edgeStyle=orthogonalEdgeStyle;rounded=0;orthogonalLoop=1;jettySize=auto;html=1;" parent="1" source="eaBGvAUoTCd1ScwMtzOl-10" edge="1">
          <mxGeometry relative="1" as="geometry">
            <mxPoint x="1400" y="-3160" as="targetPoint" />
          </mxGeometry>
        </mxCell>
        <mxCell id="eaBGvAUoTCd1ScwMtzOl-10" value="Pofán vág (-15% energia)" style="whiteSpace=wrap;html=1;rounded=0;" parent="1" vertex="1">
          <mxGeometry x="1290" y="-3600" width="120" height="60" as="geometry" />
        </mxCell>
        <mxCell id="eaBGvAUoTCd1ScwMtzOl-14" value="" style="edgeStyle=orthogonalEdgeStyle;rounded=0;orthogonalLoop=1;jettySize=auto;html=1;" parent="1" edge="1">
          <mxGeometry relative="1" as="geometry">
            <mxPoint x="1400" y="-3160" as="targetPoint" />
            <mxPoint x="1280" y="-3160" as="sourcePoint" />
          </mxGeometry>
        </mxCell>
        <mxCell id="eaBGvAUoTCd1ScwMtzOl-17" value="" style="edgeStyle=orthogonalEdgeStyle;rounded=0;orthogonalLoop=1;jettySize=auto;html=1;" parent="1" source="eI0seqku75HwyaSV5OBJ-52" edge="1">
          <mxGeometry relative="1" as="geometry">
            <mxPoint x="1280" y="-3160" as="targetPoint" />
            <mxPoint x="1160" y="-3170" as="sourcePoint" />
          </mxGeometry>
        </mxCell>
        <mxCell id="eaBGvAUoTCd1ScwMtzOl-48" value="" style="edgeStyle=orthogonalEdgeStyle;rounded=0;orthogonalLoop=1;jettySize=auto;html=1;" parent="1" source="eaBGvAUoTCd1ScwMtzOl-45" target="eaBGvAUoTCd1ScwMtzOl-47" edge="1">
          <mxGeometry relative="1" as="geometry" />
        </mxCell>
        <mxCell id="eaBGvAUoTCd1ScwMtzOl-49" value="" style="edgeStyle=orthogonalEdgeStyle;rounded=0;orthogonalLoop=1;jettySize=auto;html=1;" parent="1" source="eaBGvAUoTCd1ScwMtzOl-45" target="eaBGvAUoTCd1ScwMtzOl-47" edge="1">
          <mxGeometry relative="1" as="geometry" />
        </mxCell>
        <mxCell id="eaBGvAUoTCd1ScwMtzOl-50" value="" style="edgeStyle=orthogonalEdgeStyle;rounded=0;orthogonalLoop=1;jettySize=auto;html=1;" parent="1" source="eaBGvAUoTCd1ScwMtzOl-45" target="eaBGvAUoTCd1ScwMtzOl-47" edge="1">
          <mxGeometry relative="1" as="geometry" />
        </mxCell>
        <mxCell id="eaBGvAUoTCd1ScwMtzOl-51" value="" style="edgeStyle=orthogonalEdgeStyle;rounded=0;orthogonalLoop=1;jettySize=auto;html=1;" parent="1" source="eaBGvAUoTCd1ScwMtzOl-45" target="eaBGvAUoTCd1ScwMtzOl-47" edge="1">
          <mxGeometry relative="1" as="geometry" />
        </mxCell>
        <mxCell id="eaBGvAUoTCd1ScwMtzOl-54" value="" style="edgeStyle=orthogonalEdgeStyle;rounded=0;orthogonalLoop=1;jettySize=auto;html=1;" parent="1" source="eaBGvAUoTCd1ScwMtzOl-45" target="eaBGvAUoTCd1ScwMtzOl-53" edge="1">
          <mxGeometry relative="1" as="geometry" />
        </mxCell>
        <mxCell id="eaBGvAUoTCd1ScwMtzOl-45" value="&quot;Tetszik a domináns hozzállásod, akar velem hancúrozni a pulton?&quot;" style="whiteSpace=wrap;html=1;rounded=0;" parent="1" vertex="1">
          <mxGeometry x="750" y="-2060" width="120" height="60" as="geometry" />
        </mxCell>
        <mxCell id="eaBGvAUoTCd1ScwMtzOl-58" value="" style="edgeStyle=orthogonalEdgeStyle;rounded=0;orthogonalLoop=1;jettySize=auto;html=1;" parent="1" source="eaBGvAUoTCd1ScwMtzOl-47" target="eaBGvAUoTCd1ScwMtzOl-57" edge="1">
          <mxGeometry relative="1" as="geometry" />
        </mxCell>
        <mxCell id="eaBGvAUoTCd1ScwMtzOl-47" value="Igen" style="whiteSpace=wrap;html=1;rounded=0;" parent="1" vertex="1">
          <mxGeometry x="730" y="-1960" width="120" height="60" as="geometry" />
        </mxCell>
        <mxCell id="eaBGvAUoTCd1ScwMtzOl-56" value="" style="edgeStyle=orthogonalEdgeStyle;rounded=0;orthogonalLoop=1;jettySize=auto;html=1;" parent="1" source="eaBGvAUoTCd1ScwMtzOl-53" target="A1ZuuhthlVVNKibYsWye-1" edge="1">
          <mxGeometry relative="1" as="geometry">
            <Array as="points">
              <mxPoint x="630" y="-1705" />
              <mxPoint x="1330" y="-1705" />
              <mxPoint x="1330" y="-1670" />
              <mxPoint x="1390" y="-1670" />
              <mxPoint x="1390" y="-1648" />
              <mxPoint x="1620" y="-1648" />
            </Array>
            <mxPoint x="1390" y="-1620" as="targetPoint" />
          </mxGeometry>
        </mxCell>
        <mxCell id="eaBGvAUoTCd1ScwMtzOl-53" value="Nem, és ráhívod a rendőrséget. Később kiderül egy hírhedt pedofil volt, ezért&amp;nbsp; a rendőrség 3000 Ft-ot ad neked.(+3000 FT)" style="whiteSpace=wrap;html=1;rounded=0;" parent="1" vertex="1">
          <mxGeometry x="570" y="-1920" width="120" height="100" as="geometry" />
        </mxCell>
        <mxCell id="eaBGvAUoTCd1ScwMtzOl-57" value="Lefekszel a pultos nővel, és kapsz tőle egy energiaitalt.(+20% energia)" style="whiteSpace=wrap;html=1;rounded=0;" parent="1" vertex="1">
          <mxGeometry x="730" y="-1820" width="120" height="60" as="geometry" />
        </mxCell>
        <mxCell id="eaBGvAUoTCd1ScwMtzOl-100" value="" style="edgeStyle=none;rounded=0;orthogonalLoop=1;jettySize=auto;html=1;" parent="1" source="eaBGvAUoTCd1ScwMtzOl-77" edge="1">
          <mxGeometry relative="1" as="geometry">
            <mxPoint x="1380" y="-2720" as="targetPoint" />
          </mxGeometry>
        </mxCell>
        <mxCell id="eaBGvAUoTCd1ScwMtzOl-77" value="Haladsz a kijárat felé, meglátod a kis abct" style="whiteSpace=wrap;html=1;rounded=0;" parent="1" vertex="1">
          <mxGeometry x="1470" y="-2840" width="300" height="60" as="geometry" />
        </mxCell>
        <mxCell id="eaBGvAUoTCd1ScwMtzOl-146" value="" style="edgeStyle=orthogonalEdgeStyle;rounded=0;orthogonalLoop=1;jettySize=auto;html=1;" parent="1" source="eaBGvAUoTCd1ScwMtzOl-147" target="eaBGvAUoTCd1ScwMtzOl-153" edge="1">
          <mxGeometry relative="1" as="geometry" />
        </mxCell>
        <mxCell id="eaBGvAUoTCd1ScwMtzOl-159" value="" style="edgeStyle=none;rounded=0;orthogonalLoop=1;jettySize=auto;html=1;" parent="1" source="eaBGvAUoTCd1ScwMtzOl-147" target="eI0seqku75HwyaSV5OBJ-64" edge="1">
          <mxGeometry relative="1" as="geometry" />
        </mxCell>
        <mxCell id="eaBGvAUoTCd1ScwMtzOl-147" value="Megpillantasz egy százast a földön.&lt;br&gt;Felveszed?" style="whiteSpace=wrap;html=1;rounded=0;" parent="1" vertex="1">
          <mxGeometry x="1472.5" y="-3020" width="120" height="60" as="geometry" />
        </mxCell>
        <mxCell id="eaBGvAUoTCd1ScwMtzOl-148" value="" style="edgeStyle=orthogonalEdgeStyle;rounded=0;orthogonalLoop=1;jettySize=auto;html=1;" parent="1" source="eaBGvAUoTCd1ScwMtzOl-150" edge="1">
          <mxGeometry relative="1" as="geometry">
            <mxPoint x="1592.5" y="-2980" as="targetPoint" />
          </mxGeometry>
        </mxCell>
        <mxCell id="eaBGvAUoTCd1ScwMtzOl-149" value="" style="edgeStyle=none;rounded=0;orthogonalLoop=1;jettySize=auto;html=1;" parent="1" source="eaBGvAUoTCd1ScwMtzOl-150" target="eaBGvAUoTCd1ScwMtzOl-77" edge="1">
          <mxGeometry relative="1" as="geometry">
            <mxPoint x="1580" y="-2840" as="targetPoint" />
          </mxGeometry>
        </mxCell>
        <mxCell id="eaBGvAUoTCd1ScwMtzOl-150" value="Nem" style="whiteSpace=wrap;html=1;" parent="1" vertex="1">
          <mxGeometry x="1627.5" y="-2950" width="120" height="60" as="geometry" />
        </mxCell>
        <mxCell id="eaBGvAUoTCd1ScwMtzOl-151" value="" style="edgeStyle=orthogonalEdgeStyle;rounded=0;orthogonalLoop=1;jettySize=auto;html=1;" parent="1" source="eaBGvAUoTCd1ScwMtzOl-153" target="eaBGvAUoTCd1ScwMtzOl-155" edge="1">
          <mxGeometry relative="1" as="geometry" />
        </mxCell>
        <mxCell id="eaBGvAUoTCd1ScwMtzOl-152" value="" style="edgeStyle=orthogonalEdgeStyle;rounded=0;orthogonalLoop=1;jettySize=auto;html=1;" parent="1" source="eaBGvAUoTCd1ScwMtzOl-153" target="eaBGvAUoTCd1ScwMtzOl-156" edge="1">
          <mxGeometry relative="1" as="geometry" />
        </mxCell>
        <mxCell id="eaBGvAUoTCd1ScwMtzOl-153" value="Igen" style="whiteSpace=wrap;html=1;rounded=0;" parent="1" vertex="1">
          <mxGeometry x="1252.5" y="-3020" width="120" height="60" as="geometry" />
        </mxCell>
        <mxCell id="eaBGvAUoTCd1ScwMtzOl-154" value="" style="edgeStyle=orthogonalEdgeStyle;rounded=0;orthogonalLoop=1;jettySize=auto;html=1;entryX=0;entryY=0.5;entryDx=0;entryDy=0;" parent="1" source="eaBGvAUoTCd1ScwMtzOl-155" target="eaBGvAUoTCd1ScwMtzOl-77" edge="1">
          <mxGeometry relative="1" as="geometry">
            <mxPoint x="1460" y="-2857.5" as="targetPoint" />
          </mxGeometry>
        </mxCell>
        <mxCell id="eaBGvAUoTCd1ScwMtzOl-155" value="Felvetted a százast(+100 Ft)" style="whiteSpace=wrap;html=1;rounded=0;" parent="1" vertex="1">
          <mxGeometry x="1152.5" y="-2840" width="120" height="60" as="geometry" />
        </mxCell>
        <mxCell id="eaBGvAUoTCd1ScwMtzOl-156" value="Lakatos Ricárdó&lt;br&gt;mögötted terem, megver(-500 Ft)" style="whiteSpace=wrap;html=1;rounded=0;" parent="1" vertex="1">
          <mxGeometry x="1052.5" y="-3020" width="120" height="60" as="geometry" />
        </mxCell>
        <mxCell id="jfBG-qEeaqnFrTGpLrWy-1" value="Ha nincs parfümöd, elkapnak, vesztettél" style="whiteSpace=wrap;html=1;rounded=0;" parent="1" vertex="1">
          <mxGeometry x="1627.5" y="-70" width="120" height="60" as="geometry" />
        </mxCell>
        <mxCell id="jfBG-qEeaqnFrTGpLrWy-5" value="" style="edgeStyle=orthogonalEdgeStyle;rounded=0;orthogonalLoop=1;jettySize=auto;html=1;" parent="1" source="A1ZuuhthlVVNKibYsWye-58" edge="1">
          <mxGeometry relative="1" as="geometry">
            <mxPoint x="1340" y="140" as="sourcePoint" />
            <mxPoint x="1505" y="250" as="targetPoint" />
          </mxGeometry>
        </mxCell>
        <mxCell id="jfBG-qEeaqnFrTGpLrWy-9" value="" style="endArrow=none;html=1;rounded=0;exitX=1;exitY=0.75;exitDx=0;exitDy=0;" parent="1" source="A1ZuuhthlVVNKibYsWye-18" target="jfBG-qEeaqnFrTGpLrWy-10" edge="1">
          <mxGeometry width="50" height="50" relative="1" as="geometry">
            <mxPoint x="1800" y="-1240" as="sourcePoint" />
            <mxPoint x="1860" y="-1240" as="targetPoint" />
          </mxGeometry>
        </mxCell>
        <mxCell id="jfBG-qEeaqnFrTGpLrWy-10" value="&quot;Itt van nesze csak kotródj innét&quot;" style="rounded=0;whiteSpace=wrap;html=1;" parent="1" vertex="1">
          <mxGeometry x="1810" y="-1140" width="120" height="60" as="geometry" />
        </mxCell>
        <mxCell id="jfBG-qEeaqnFrTGpLrWy-15" value="" style="endArrow=none;html=1;rounded=0;" parent="1" source="eI0seqku75HwyaSV5OBJ-99" target="A1ZuuhthlVVNKibYsWye-1" edge="1">
          <mxGeometry width="50" height="50" relative="1" as="geometry">
            <mxPoint x="1380" y="-1860" as="sourcePoint" />
            <mxPoint x="1430" y="-1910" as="targetPoint" />
          </mxGeometry>
        </mxCell>
        <mxCell id="jfBG-qEeaqnFrTGpLrWy-16" value="" style="endArrow=none;html=1;rounded=0;" parent="1" source="eI0seqku75HwyaSV5OBJ-101" target="A1ZuuhthlVVNKibYsWye-1" edge="1">
          <mxGeometry width="50" height="50" relative="1" as="geometry">
            <mxPoint x="1380" y="-1860" as="sourcePoint" />
            <mxPoint x="1400" y="-1780" as="targetPoint" />
          </mxGeometry>
        </mxCell>
        <mxCell id="CUcIam9u_VTtIWiymEvo-1" value="" style="edgeStyle=orthogonalEdgeStyle;rounded=0;orthogonalLoop=1;jettySize=auto;html=1;" parent="1" source="jfBG-qEeaqnFrTGpLrWy-18" target="jfBG-qEeaqnFrTGpLrWy-22" edge="1">
          <mxGeometry relative="1" as="geometry" />
        </mxCell>
        <mxCell id="jfBG-qEeaqnFrTGpLrWy-18" value="&quot;van parfümöd, ha van, adok egy ezrest&quot;&lt;br&gt;Eltradeled?" style="rounded=0;whiteSpace=wrap;html=1;" parent="1" vertex="1">
          <mxGeometry x="1020" y="-240" width="120" height="60" as="geometry" />
        </mxCell>
        <mxCell id="jfBG-qEeaqnFrTGpLrWy-19" value="" style="endArrow=none;html=1;rounded=0;" parent="1" source="jfBG-qEeaqnFrTGpLrWy-18" target="A1ZuuhthlVVNKibYsWye-48" edge="1">
          <mxGeometry width="50" height="50" relative="1" as="geometry">
            <mxPoint x="1620" y="-210" as="sourcePoint" />
            <mxPoint x="1670" y="-260" as="targetPoint" />
          </mxGeometry>
        </mxCell>
        <mxCell id="jfBG-qEeaqnFrTGpLrWy-20" value="" style="endArrow=none;html=1;rounded=0;" parent="1" source="jfBG-qEeaqnFrTGpLrWy-18" target="jfBG-qEeaqnFrTGpLrWy-21" edge="1">
          <mxGeometry width="50" height="50" relative="1" as="geometry">
            <mxPoint x="1620" y="-210" as="sourcePoint" />
            <mxPoint x="940" y="-120" as="targetPoint" />
          </mxGeometry>
        </mxCell>
        <mxCell id="jfBG-qEeaqnFrTGpLrWy-21" value="Igen(+1000Ft)" style="rounded=0;whiteSpace=wrap;html=1;" parent="1" vertex="1">
          <mxGeometry x="880" y="-120.00000000000091" width="120" height="60" as="geometry" />
        </mxCell>
        <mxCell id="jfBG-qEeaqnFrTGpLrWy-22" value="Nem" style="rounded=0;whiteSpace=wrap;html=1;" parent="1" vertex="1">
          <mxGeometry x="1110" y="-120" width="120" height="60" as="geometry" />
        </mxCell>
        <mxCell id="jfBG-qEeaqnFrTGpLrWy-25" value="" style="endArrow=none;html=1;rounded=0;entryX=0.329;entryY=0.996;entryDx=0;entryDy=0;entryPerimeter=0;exitX=0;exitY=0;exitDx=0;exitDy=0;" parent="1" source="A1ZuuhthlVVNKibYsWye-60" target="jfBG-qEeaqnFrTGpLrWy-22" edge="1">
          <mxGeometry width="50" height="50" relative="1" as="geometry">
            <mxPoint x="1190" y="230" as="sourcePoint" />
            <mxPoint x="1670" y="70" as="targetPoint" />
            <Array as="points">
              <mxPoint x="1200" y="200" />
            </Array>
          </mxGeometry>
        </mxCell>
        <mxCell id="jfBG-qEeaqnFrTGpLrWy-26" value="" style="endArrow=none;html=1;rounded=0;entryX=0.579;entryY=0.975;entryDx=0;entryDy=0;entryPerimeter=0;" parent="1" source="A1ZuuhthlVVNKibYsWye-60" target="jfBG-qEeaqnFrTGpLrWy-21" edge="1">
          <mxGeometry width="50" height="50" relative="1" as="geometry">
            <mxPoint x="1120" y="230" as="sourcePoint" />
            <mxPoint x="1670" y="70" as="targetPoint" />
            <Array as="points">
              <mxPoint x="1060" y="210" />
            </Array>
          </mxGeometry>
        </mxCell>
        <mxCell id="CUcIam9u_VTtIWiymEvo-8" value="20% eséllyel: Elraboltak a hobók mert nem tetszett nekik a kisugárzásod, többet nem láttak. Újra kell kezdened a játékot" style="whiteSpace=wrap;html=1;rounded=0;" parent="1" vertex="1">
          <mxGeometry x="2024.62" y="-1605" width="220" height="60" as="geometry" />
        </mxCell>
        <mxCell id="BBwWLURGJsG2f3GIJGJN-1" value="" style="endArrow=none;html=1;rounded=0;exitX=0.6;exitY=0.983;exitDx=0;exitDy=0;exitPerimeter=0;entryX=1;entryY=0.25;entryDx=0;entryDy=0;" parent="1" source="jfBG-qEeaqnFrTGpLrWy-10" target="A1ZuuhthlVVNKibYsWye-34" edge="1">
          <mxGeometry width="50" height="50" relative="1" as="geometry">
            <mxPoint x="1640" y="-950" as="sourcePoint" />
            <mxPoint x="1690" y="-1000" as="targetPoint" />
          </mxGeometry>
        </mxCell>
        <mxCell id="sXqX9lx4UD8GH25Rg_-u-1" value="" style="endArrow=none;html=1;rounded=0;" parent="1" source="XENK1jpgHzBH2HOoDfxF-1" target="A1ZuuhthlVVNKibYsWye-76" edge="1">
          <mxGeometry width="50" height="50" relative="1" as="geometry">
            <mxPoint x="2154.62" y="-3610" as="sourcePoint" />
            <mxPoint x="1624.62" y="-3430" as="targetPoint" />
          </mxGeometry>
        </mxCell>
        <mxCell id="XENK1jpgHzBH2HOoDfxF-1" value="Vágtatsz a hídon, és szembe jön veled Gálik úr" style="rounded=0;whiteSpace=wrap;html=1;" parent="1" vertex="1">
          <mxGeometry x="2054.62" y="-3630" width="120" height="60" as="geometry" />
        </mxCell>
        <mxCell id="XENK1jpgHzBH2HOoDfxF-2" value="" style="endArrow=none;html=1;rounded=0;entryX=0.25;entryY=1;entryDx=0;entryDy=0;exitX=0.75;exitY=0;exitDx=0;exitDy=0;" parent="1" source="XENK1jpgHzBH2HOoDfxF-3" target="XENK1jpgHzBH2HOoDfxF-1" edge="1">
          <mxGeometry width="50" height="50" relative="1" as="geometry">
            <mxPoint x="2054.62" y="-3500" as="sourcePoint" />
            <mxPoint x="2174.62" y="-3580" as="targetPoint" />
          </mxGeometry>
        </mxCell>
        <mxCell id="XENK1jpgHzBH2HOoDfxF-3" value="&quot;Van egy szálad hapsikám?&quot;" style="rounded=0;whiteSpace=wrap;html=1;" parent="1" vertex="1">
          <mxGeometry x="1934.62" y="-3540" width="120" height="60" as="geometry" />
        </mxCell>
        <mxCell id="XENK1jpgHzBH2HOoDfxF-4" value="&lt;p style=&quot;line-height: 120%;&quot;&gt;&#39;&quot;megböki a melled&quot; Te mit eszel? Adjá nekem is&lt;/p&gt;" style="rounded=0;whiteSpace=wrap;html=1;" parent="1" vertex="1">
          <mxGeometry x="2114.62" y="-3540" width="120" height="60" as="geometry" />
        </mxCell>
        <mxCell id="XENK1jpgHzBH2HOoDfxF-5" value="" style="endArrow=none;html=1;rounded=0;exitX=0.5;exitY=0;exitDx=0;exitDy=0;" parent="1" source="XENK1jpgHzBH2HOoDfxF-4" target="XENK1jpgHzBH2HOoDfxF-1" edge="1">
          <mxGeometry width="50" height="50" relative="1" as="geometry">
            <mxPoint x="2124.62" y="-3530" as="sourcePoint" />
            <mxPoint x="2174.62" y="-3580" as="targetPoint" />
          </mxGeometry>
        </mxCell>
        <mxCell id="XENK1jpgHzBH2HOoDfxF-6" value="" style="endArrow=none;html=1;rounded=0;entryX=0.25;entryY=1;entryDx=0;entryDy=0;" parent="1" source="XENK1jpgHzBH2HOoDfxF-7" target="XENK1jpgHzBH2HOoDfxF-4" edge="1">
          <mxGeometry width="50" height="50" relative="1" as="geometry">
            <mxPoint x="2134.62" y="-3370" as="sourcePoint" />
            <mxPoint x="2174.62" y="-3370" as="targetPoint" />
          </mxGeometry>
        </mxCell>
        <mxCell id="XENK1jpgHzBH2HOoDfxF-7" value="Ne nyúlj hozzám te csövimen!" style="rounded=0;whiteSpace=wrap;html=1;" parent="1" vertex="1">
          <mxGeometry x="2124.62" y="-3410" width="120" height="60" as="geometry" />
        </mxCell>
        <mxCell id="XENK1jpgHzBH2HOoDfxF-8" value="" style="endArrow=none;html=1;rounded=0;" parent="1" source="XENK1jpgHzBH2HOoDfxF-9" target="XENK1jpgHzBH2HOoDfxF-4" edge="1">
          <mxGeometry width="50" height="50" relative="1" as="geometry">
            <mxPoint x="2374.62" y="-3440" as="sourcePoint" />
            <mxPoint x="2174.62" y="-3370" as="targetPoint" />
          </mxGeometry>
        </mxCell>
        <mxCell id="XENK1jpgHzBH2HOoDfxF-9" value="Adsz&amp;nbsp; neki egy zacskó fehérjét" style="rounded=0;whiteSpace=wrap;html=1;" parent="1" vertex="1">
          <mxGeometry x="2344.62" y="-3410" width="120" height="60" as="geometry" />
        </mxCell>
        <mxCell id="XENK1jpgHzBH2HOoDfxF-11" value="" style="endArrow=none;html=1;rounded=0;" parent="1" source="XENK1jpgHzBH2HOoDfxF-12" target="XENK1jpgHzBH2HOoDfxF-7" edge="1">
          <mxGeometry width="50" height="50" relative="1" as="geometry">
            <mxPoint x="2114.62" y="-3280" as="sourcePoint" />
            <mxPoint x="2164.62" y="-3330" as="targetPoint" />
          </mxGeometry>
        </mxCell>
        <mxCell id="XENK1jpgHzBH2HOoDfxF-12" value="Miután rájöttél kivel beszélsz, terrorodban az aluljáró felé veszed az irányt mégiscsak" style="rounded=0;whiteSpace=wrap;html=1;" parent="1" vertex="1">
          <mxGeometry x="2140" y="-3170" width="120" height="80" as="geometry" />
        </mxCell>
        <mxCell id="xFF72bUd_hSEvZZGDsvH-1" value="" style="endArrow=none;html=1;rounded=0;" edge="1" parent="1" source="xFF72bUd_hSEvZZGDsvH-2" target="XENK1jpgHzBH2HOoDfxF-3">
          <mxGeometry width="50" height="50" relative="1" as="geometry">
            <mxPoint x="1910.0046153846156" y="-3410" as="sourcePoint" />
            <mxPoint x="2019.62" y="-3460" as="targetPoint" />
          </mxGeometry>
        </mxCell>
        <mxCell id="xFF72bUd_hSEvZZGDsvH-2" value="Neked nincs véntrotty" style="rounded=0;whiteSpace=wrap;html=1;" vertex="1" parent="1">
          <mxGeometry x="1860" y="-3400" width="120" height="60" as="geometry" />
        </mxCell>
        <mxCell id="xFF72bUd_hSEvZZGDsvH-3" value="van még kettő a farzsebemben, szívjuk el együtt móni" style="rounded=0;whiteSpace=wrap;html=1;" vertex="1" parent="1">
          <mxGeometry x="1994.62" y="-3390" width="120" height="60" as="geometry" />
        </mxCell>
        <mxCell id="xFF72bUd_hSEvZZGDsvH-4" value="" style="endArrow=none;html=1;rounded=0;" edge="1" parent="1" source="xFF72bUd_hSEvZZGDsvH-3" target="XENK1jpgHzBH2HOoDfxF-3">
          <mxGeometry width="50" height="50" relative="1" as="geometry">
            <mxPoint x="1869.62" y="-3460" as="sourcePoint" />
            <mxPoint x="1919.62" y="-3510" as="targetPoint" />
          </mxGeometry>
        </mxCell>
        <mxCell id="xFF72bUd_hSEvZZGDsvH-5" value="" style="endArrow=none;html=1;rounded=0;" edge="1" parent="1" source="xFF72bUd_hSEvZZGDsvH-6" target="xFF72bUd_hSEvZZGDsvH-3">
          <mxGeometry width="50" height="50" relative="1" as="geometry">
            <mxPoint x="2004.62" y="-3280" as="sourcePoint" />
            <mxPoint x="2004.62" y="-3280" as="targetPoint" />
          </mxGeometry>
        </mxCell>
        <mxCell id="xFF72bUd_hSEvZZGDsvH-6" value="Gálik úr megköszönte a szívességet,&lt;br&gt;kezet fogott veled és egy haribót és egy energialt nyomott a kacsódba&amp;nbsp;" style="rounded=0;whiteSpace=wrap;html=1;" vertex="1" parent="1">
          <mxGeometry x="1914.62" y="-3260" width="125.38" height="100" as="geometry" />
        </mxCell>
        <mxCell id="xFF72bUd_hSEvZZGDsvH-7" value="" style="endArrow=none;html=1;rounded=0;exitX=0.75;exitY=1;exitDx=0;exitDy=0;" edge="1" parent="1" source="eI0seqku75HwyaSV5OBJ-3" target="XENK1jpgHzBH2HOoDfxF-12">
          <mxGeometry width="50" height="50" relative="1" as="geometry">
            <mxPoint x="1790" y="-4010" as="sourcePoint" />
            <mxPoint x="2130" y="-3510" as="targetPoint" />
            <Array as="points">
              <mxPoint x="1850" y="-3930" />
              <mxPoint x="1820" y="-3630" />
              <mxPoint x="1660" y="-3240" />
              <mxPoint x="1770" y="-3070" />
            </Array>
          </mxGeometry>
        </mxCell>
        <mxCell id="xFF72bUd_hSEvZZGDsvH-13" value="" style="endArrow=none;html=1;rounded=0;" edge="1" parent="1" source="xFF72bUd_hSEvZZGDsvH-14" target="xFF72bUd_hSEvZZGDsvH-6">
          <mxGeometry width="50" height="50" relative="1" as="geometry">
            <mxPoint x="1850" y="-3000" as="sourcePoint" />
            <mxPoint x="1900" y="-3050" as="targetPoint" />
          </mxGeometry>
        </mxCell>
        <mxCell id="xFF72bUd_hSEvZZGDsvH-14" value="Továbbmentél" style="rounded=0;whiteSpace=wrap;html=1;" vertex="1" parent="1">
          <mxGeometry x="2310" y="-2840" width="120" height="60" as="geometry" />
        </mxCell>
        <mxCell id="xFF72bUd_hSEvZZGDsvH-15" value="" style="endArrow=none;html=1;rounded=0;entryX=0.5;entryY=1;entryDx=0;entryDy=0;" edge="1" parent="1" source="xFF72bUd_hSEvZZGDsvH-16" target="xFF72bUd_hSEvZZGDsvH-2">
          <mxGeometry width="50" height="50" relative="1" as="geometry">
            <mxPoint x="1830" y="-3290" as="sourcePoint" />
            <mxPoint x="1830" y="-3340" as="targetPoint" />
          </mxGeometry>
        </mxCell>
        <mxCell id="xFF72bUd_hSEvZZGDsvH-16" value="Gálik úr ledobott a hídról a sínekre, ahol megcsókoltad a kispiros mozdony kerekét&lt;br&gt;Vesztettél&lt;br&gt;" style="rounded=0;whiteSpace=wrap;html=1;" vertex="1" parent="1">
          <mxGeometry x="1740" y="-3300" width="110" height="100" as="geometry" />
        </mxCell>
        <mxCell id="xFF72bUd_hSEvZZGDsvH-17" value="Köszönöm szépen, megyek kigyúrom magam a dzsimbe&lt;br&gt;Markodba egy 500ast nyomott" style="rounded=0;whiteSpace=wrap;html=1;" vertex="1" parent="1">
          <mxGeometry x="2374.62" y="-3220" width="115.38" height="90" as="geometry" />
        </mxCell>
        <mxCell id="xFF72bUd_hSEvZZGDsvH-19" value="" style="endArrow=none;html=1;rounded=0;" edge="1" parent="1" source="xFF72bUd_hSEvZZGDsvH-17" target="XENK1jpgHzBH2HOoDfxF-9">
          <mxGeometry width="50" height="50" relative="1" as="geometry">
            <mxPoint x="2360" y="-3290" as="sourcePoint" />
            <mxPoint x="2410" y="-3340" as="targetPoint" />
          </mxGeometry>
        </mxCell>
        <mxCell id="xFF72bUd_hSEvZZGDsvH-21" value="" style="endArrow=none;html=1;rounded=0;" edge="1" parent="1" source="xFF72bUd_hSEvZZGDsvH-22" target="A1ZuuhthlVVNKibYsWye-76">
          <mxGeometry width="50" height="50" relative="1" as="geometry">
            <mxPoint x="2650" y="-3590" as="sourcePoint" />
            <mxPoint x="2675" y="-3640" as="targetPoint" />
          </mxGeometry>
        </mxCell>
        <mxCell id="xFF72bUd_hSEvZZGDsvH-22" value="A&amp;nbsp; hídon galoppolva szembejön veled 3 ütnivaló fiatalember.&lt;br&gt;Valahogy el kell menj mellettük, de elfoglalják az egész járdát. Mit teszel?" style="rounded=0;whiteSpace=wrap;html=1;" vertex="1" parent="1">
          <mxGeometry x="2670" y="-3560" width="130" height="110" as="geometry" />
        </mxCell>
        <mxCell id="xFF72bUd_hSEvZZGDsvH-23" value="" style="endArrow=none;html=1;rounded=0;" edge="1" parent="1" source="xFF72bUd_hSEvZZGDsvH-24" target="xFF72bUd_hSEvZZGDsvH-22">
          <mxGeometry width="50" height="50" relative="1" as="geometry">
            <mxPoint x="2640" y="-3400" as="sourcePoint" />
            <mxPoint x="2230" y="-3520" as="targetPoint" />
          </mxGeometry>
        </mxCell>
        <mxCell id="xFF72bUd_hSEvZZGDsvH-24" value="Elmész&amp;nbsp; mellettük,&lt;br&gt;rálépve az úttestre" style="rounded=0;whiteSpace=wrap;html=1;" vertex="1" parent="1">
          <mxGeometry x="2610" y="-3380" width="120" height="60" as="geometry" />
        </mxCell>
        <mxCell id="xFF72bUd_hSEvZZGDsvH-25" value="Egy 90 éves papi áthajt rajtad&lt;br&gt;Vesztettél" style="rounded=0;whiteSpace=wrap;html=1;" vertex="1" parent="1">
          <mxGeometry x="2530" y="-3280" width="120" height="60" as="geometry" />
        </mxCell>
        <mxCell id="xFF72bUd_hSEvZZGDsvH-26" value="" style="endArrow=none;html=1;rounded=0;" edge="1" parent="1" source="xFF72bUd_hSEvZZGDsvH-25" target="xFF72bUd_hSEvZZGDsvH-24">
          <mxGeometry width="50" height="50" relative="1" as="geometry">
            <mxPoint x="2580" y="-3410" as="sourcePoint" />
            <mxPoint x="2630" y="-3460" as="targetPoint" />
          </mxGeometry>
        </mxCell>
        <mxCell id="xFF72bUd_hSEvZZGDsvH-27" value="Sikeresen kikerülöd őket" style="rounded=0;whiteSpace=wrap;html=1;" vertex="1" parent="1">
          <mxGeometry x="2700" y="-3280" width="120" height="60" as="geometry" />
        </mxCell>
        <mxCell id="xFF72bUd_hSEvZZGDsvH-28" value="" style="endArrow=none;html=1;rounded=0;" edge="1" parent="1" source="xFF72bUd_hSEvZZGDsvH-27" target="xFF72bUd_hSEvZZGDsvH-24">
          <mxGeometry width="50" height="50" relative="1" as="geometry">
            <mxPoint x="2580" y="-3410" as="sourcePoint" />
            <mxPoint x="2630" y="-3460" as="targetPoint" />
          </mxGeometry>
        </mxCell>
        <mxCell id="xFF72bUd_hSEvZZGDsvH-29" value="" style="endArrow=none;html=1;rounded=0;" edge="1" parent="1" source="xFF72bUd_hSEvZZGDsvH-14" target="xFF72bUd_hSEvZZGDsvH-27">
          <mxGeometry width="50" height="50" relative="1" as="geometry">
            <mxPoint x="2730" y="-3040" as="sourcePoint" />
            <mxPoint x="2840" y="-3270" as="targetPoint" />
            <Array as="points" />
          </mxGeometry>
        </mxCell>
        <mxCell id="xFF72bUd_hSEvZZGDsvH-31" value="" style="endArrow=none;html=1;rounded=0;" edge="1" parent="1" source="xFF72bUd_hSEvZZGDsvH-14" target="xFF72bUd_hSEvZZGDsvH-17">
          <mxGeometry width="50" height="50" relative="1" as="geometry">
            <mxPoint x="2330" y="-2980" as="sourcePoint" />
            <mxPoint x="2380" y="-3030" as="targetPoint" />
          </mxGeometry>
        </mxCell>
        <mxCell id="xFF72bUd_hSEvZZGDsvH-32" value="Szölsz nekik hogy menjenek alrébb" style="rounded=0;whiteSpace=wrap;html=1;" vertex="1" parent="1">
          <mxGeometry x="2840" y="-3390" width="120" height="60" as="geometry" />
        </mxCell>
        <mxCell id="xFF72bUd_hSEvZZGDsvH-33" value="" style="endArrow=none;html=1;rounded=0;entryX=0.25;entryY=0;entryDx=0;entryDy=0;exitX=0.814;exitY=0.995;exitDx=0;exitDy=0;exitPerimeter=0;" edge="1" parent="1" source="xFF72bUd_hSEvZZGDsvH-22" target="xFF72bUd_hSEvZZGDsvH-32">
          <mxGeometry width="50" height="50" relative="1" as="geometry">
            <mxPoint x="2790" y="-3420" as="sourcePoint" />
            <mxPoint x="2870.58" y="-3380" as="targetPoint" />
          </mxGeometry>
        </mxCell>
        <mxCell id="xFF72bUd_hSEvZZGDsvH-34" value="Jajj bocs tesó, alrébb állunk" style="rounded=0;whiteSpace=wrap;html=1;" vertex="1" parent="1">
          <mxGeometry x="2840" y="-3280" width="120" height="60" as="geometry" />
        </mxCell>
        <mxCell id="xFF72bUd_hSEvZZGDsvH-35" value="" style="endArrow=none;html=1;rounded=0;" edge="1" parent="1" source="xFF72bUd_hSEvZZGDsvH-34" target="xFF72bUd_hSEvZZGDsvH-32">
          <mxGeometry width="50" height="50" relative="1" as="geometry">
            <mxPoint x="2660" y="-3390" as="sourcePoint" />
            <mxPoint x="2710" y="-3440" as="targetPoint" />
          </mxGeometry>
        </mxCell>
        <mxCell id="xFF72bUd_hSEvZZGDsvH-36" value="" style="endArrow=none;html=1;rounded=0;" edge="1" parent="1" source="xFF72bUd_hSEvZZGDsvH-14" target="xFF72bUd_hSEvZZGDsvH-34">
          <mxGeometry width="50" height="50" relative="1" as="geometry">
            <mxPoint x="2660" y="-2970" as="sourcePoint" />
            <mxPoint x="2710" y="-3220" as="targetPoint" />
          </mxGeometry>
        </mxCell>
        <mxCell id="xFF72bUd_hSEvZZGDsvH-37" value="Ki vagy&amp;nbsp; te itt hé&lt;br&gt;Megvernek -500 Ft" style="rounded=0;whiteSpace=wrap;html=1;" vertex="1" parent="1">
          <mxGeometry x="3010" y="-3280" width="120" height="60" as="geometry" />
        </mxCell>
        <mxCell id="xFF72bUd_hSEvZZGDsvH-38" value="" style="endArrow=none;html=1;rounded=0;" edge="1" parent="1" source="xFF72bUd_hSEvZZGDsvH-37" target="xFF72bUd_hSEvZZGDsvH-32">
          <mxGeometry width="50" height="50" relative="1" as="geometry">
            <mxPoint x="2650" y="-3230" as="sourcePoint" />
            <mxPoint x="2700" y="-3280" as="targetPoint" />
          </mxGeometry>
        </mxCell>
        <mxCell id="xFF72bUd_hSEvZZGDsvH-39" value="" style="endArrow=none;html=1;rounded=0;" edge="1" parent="1" source="xFF72bUd_hSEvZZGDsvH-14" target="xFF72bUd_hSEvZZGDsvH-37">
          <mxGeometry width="50" height="50" relative="1" as="geometry">
            <mxPoint x="2650" y="-2980" as="sourcePoint" />
            <mxPoint x="3020" y="-3160" as="targetPoint" />
          </mxGeometry>
        </mxCell>
        <mxCell id="xFF72bUd_hSEvZZGDsvH-40" value="A Baross hídon átérve a városháza előtt megpillantasz átérve egy&amp;nbsp; táblát ami egy standon virít.&lt;br&gt;&quot;Lakatos kaszinó&quot;&lt;br&gt;Betérsz ide?" style="rounded=0;whiteSpace=wrap;html=1;" vertex="1" parent="1">
          <mxGeometry x="2300" y="-2650" width="120" height="110" as="geometry" />
        </mxCell>
        <mxCell id="xFF72bUd_hSEvZZGDsvH-41" value="" style="endArrow=none;html=1;rounded=0;" edge="1" parent="1" source="xFF72bUd_hSEvZZGDsvH-40" target="xFF72bUd_hSEvZZGDsvH-14">
          <mxGeometry width="50" height="50" relative="1" as="geometry">
            <mxPoint x="2540" y="-2730" as="sourcePoint" />
            <mxPoint x="2590" y="-2780" as="targetPoint" />
          </mxGeometry>
        </mxCell>
        <mxCell id="xFF72bUd_hSEvZZGDsvH-42" value="Igen" style="rounded=0;whiteSpace=wrap;html=1;" vertex="1" parent="1">
          <mxGeometry x="2450" y="-2460" width="120" height="60" as="geometry" />
        </mxCell>
        <mxCell id="xFF72bUd_hSEvZZGDsvH-43" value="" style="endArrow=none;html=1;rounded=0;entryX=0.188;entryY=0.006;entryDx=0;entryDy=0;entryPerimeter=0;" edge="1" parent="1" source="xFF72bUd_hSEvZZGDsvH-40" target="xFF72bUd_hSEvZZGDsvH-42">
          <mxGeometry width="50" height="50" relative="1" as="geometry">
            <mxPoint x="2490" y="-2310" as="sourcePoint" />
            <mxPoint x="2540" y="-2360" as="targetPoint" />
          </mxGeometry>
        </mxCell>
        <mxCell id="xFF72bUd_hSEvZZGDsvH-44" value="Nem" style="rounded=0;whiteSpace=wrap;html=1;" vertex="1" parent="1">
          <mxGeometry x="2160" y="-2490" width="120" height="60" as="geometry" />
        </mxCell>
        <mxCell id="xFF72bUd_hSEvZZGDsvH-45" value="" style="endArrow=none;html=1;rounded=0;exitX=0;exitY=0.7;exitDx=0;exitDy=0;exitPerimeter=0;" edge="1" parent="1" source="xFF72bUd_hSEvZZGDsvH-40" target="xFF72bUd_hSEvZZGDsvH-44">
          <mxGeometry width="50" height="50" relative="1" as="geometry">
            <mxPoint x="2490" y="-2310" as="sourcePoint" />
            <mxPoint x="2540" y="-2360" as="targetPoint" />
          </mxGeometry>
        </mxCell>
        <mxCell id="xFF72bUd_hSEvZZGDsvH-46" value="" style="endArrow=none;html=1;rounded=0;entryX=0.75;entryY=1;entryDx=0;entryDy=0;" edge="1" parent="1" source="xFF72bUd_hSEvZZGDsvH-47" target="xFF72bUd_hSEvZZGDsvH-42">
          <mxGeometry width="50" height="50" relative="1" as="geometry">
            <mxPoint x="2560" y="-2310" as="sourcePoint" />
            <mxPoint x="2540" y="-2360" as="targetPoint" />
          </mxGeometry>
        </mxCell>
        <mxCell id="xFF72bUd_hSEvZZGDsvH-47" value="Régi cimborád, Csabika üdvözöl.&lt;br&gt;&quot;Mi szél hozott erre testvérem?&quot;" style="rounded=0;whiteSpace=wrap;html=1;" vertex="1" parent="1">
          <mxGeometry x="2530" y="-2330" width="120" height="60" as="geometry" />
        </mxCell>
        <mxCell id="xFF72bUd_hSEvZZGDsvH-48" value="Pörgetnék azon a csodakereken" style="rounded=1;whiteSpace=wrap;html=1;" vertex="1" parent="1">
          <mxGeometry x="2430" y="-2180" width="120" height="60" as="geometry" />
        </mxCell>
        <mxCell id="xFF72bUd_hSEvZZGDsvH-49" value="" style="endArrow=none;html=1;rounded=0;exitX=0.59;exitY=0.033;exitDx=0;exitDy=0;exitPerimeter=0;" edge="1" parent="1" source="xFF72bUd_hSEvZZGDsvH-48" target="xFF72bUd_hSEvZZGDsvH-47">
          <mxGeometry width="50" height="50" relative="1" as="geometry">
            <mxPoint x="2490" y="-2310" as="sourcePoint" />
            <mxPoint x="2540" y="-2360" as="targetPoint" />
          </mxGeometry>
        </mxCell>
        <mxCell id="xFF72bUd_hSEvZZGDsvH-50" value="Lekövérezed Csabika feleségét aki ott gubbaszt a sarokban" style="rounded=0;whiteSpace=wrap;html=1;" vertex="1" parent="1">
          <mxGeometry x="2640" y="-2180" width="120" height="60" as="geometry" />
        </mxCell>
        <mxCell id="xFF72bUd_hSEvZZGDsvH-51" value="" style="endArrow=none;html=1;rounded=0;" edge="1" parent="1" source="xFF72bUd_hSEvZZGDsvH-50" target="xFF72bUd_hSEvZZGDsvH-47">
          <mxGeometry width="50" height="50" relative="1" as="geometry">
            <mxPoint x="2490" y="-2310" as="sourcePoint" />
            <mxPoint x="2540" y="-2360" as="targetPoint" />
          </mxGeometry>
        </mxCell>
        <mxCell id="xFF72bUd_hSEvZZGDsvH-52" value="Csak beköszöntem" style="rounded=0;whiteSpace=wrap;html=1;" vertex="1" parent="1">
          <mxGeometry x="2830" y="-2180" width="120" height="60" as="geometry" />
        </mxCell>
        <mxCell id="xFF72bUd_hSEvZZGDsvH-53" value="" style="endArrow=none;html=1;rounded=0;" edge="1" parent="1" source="xFF72bUd_hSEvZZGDsvH-52" target="xFF72bUd_hSEvZZGDsvH-47">
          <mxGeometry width="50" height="50" relative="1" as="geometry">
            <mxPoint x="2490" y="-2310" as="sourcePoint" />
            <mxPoint x="2540" y="-2360" as="targetPoint" />
          </mxGeometry>
        </mxCell>
        <mxCell id="xFF72bUd_hSEvZZGDsvH-54" value="Továbbmentél" style="rounded=0;whiteSpace=wrap;html=1;" vertex="1" parent="1">
          <mxGeometry x="2640" y="-1800" width="120" height="60" as="geometry" />
        </mxCell>
        <mxCell id="xFF72bUd_hSEvZZGDsvH-55" value="" style="endArrow=none;html=1;rounded=0;" edge="1" parent="1" source="xFF72bUd_hSEvZZGDsvH-54" target="xFF72bUd_hSEvZZGDsvH-52">
          <mxGeometry width="50" height="50" relative="1" as="geometry">
            <mxPoint x="2600" y="-2250" as="sourcePoint" />
            <mxPoint x="2650" y="-2300" as="targetPoint" />
          </mxGeometry>
        </mxCell>
        <mxCell id="xFF72bUd_hSEvZZGDsvH-56" value="" style="endArrow=none;html=1;rounded=0;" edge="1" parent="1" source="xFF72bUd_hSEvZZGDsvH-57" target="xFF72bUd_hSEvZZGDsvH-50">
          <mxGeometry width="50" height="50" relative="1" as="geometry">
            <mxPoint x="2640" y="-2040" as="sourcePoint" />
            <mxPoint x="2650" y="-2300" as="targetPoint" />
          </mxGeometry>
        </mxCell>
        <mxCell id="xFF72bUd_hSEvZZGDsvH-57" value="&quot;Takarodj innen te átkozott&quot;&lt;br&gt;Csabika mostantól az ősellenséged" style="rounded=0;whiteSpace=wrap;html=1;" vertex="1" parent="1">
          <mxGeometry x="2630" y="-2060" width="120" height="60" as="geometry" />
        </mxCell>
        <mxCell id="xFF72bUd_hSEvZZGDsvH-59" value="Válaszható mennyiségű pörgetés" style="rounded=0;whiteSpace=wrap;html=1;" vertex="1" parent="1">
          <mxGeometry x="2450" y="-2090" width="120" height="60" as="geometry" />
        </mxCell>
        <mxCell id="xFF72bUd_hSEvZZGDsvH-60" value="" style="endArrow=none;html=1;rounded=0;" edge="1" parent="1" source="xFF72bUd_hSEvZZGDsvH-48" target="xFF72bUd_hSEvZZGDsvH-59">
          <mxGeometry width="50" height="50" relative="1" as="geometry">
            <mxPoint x="2600" y="-2140" as="sourcePoint" />
            <mxPoint x="2650" y="-2190" as="targetPoint" />
          </mxGeometry>
        </mxCell>
        <mxCell id="xFF72bUd_hSEvZZGDsvH-61" value="" style="endArrow=none;html=1;rounded=0;" edge="1" parent="1" source="xFF72bUd_hSEvZZGDsvH-54" target="xFF72bUd_hSEvZZGDsvH-57">
          <mxGeometry width="50" height="50" relative="1" as="geometry">
            <mxPoint x="2030" y="-1600" as="sourcePoint" />
            <mxPoint x="2000" y="-2710" as="targetPoint" />
          </mxGeometry>
        </mxCell>
        <mxCell id="xFF72bUd_hSEvZZGDsvH-62" value="" style="endArrow=none;html=1;rounded=0;" edge="1" parent="1" source="xFF72bUd_hSEvZZGDsvH-59" target="xFF72bUd_hSEvZZGDsvH-54">
          <mxGeometry width="50" height="50" relative="1" as="geometry">
            <mxPoint x="2650" y="-2000" as="sourcePoint" />
            <mxPoint x="2700" y="-2050" as="targetPoint" />
          </mxGeometry>
        </mxCell>
        <mxCell id="xFF72bUd_hSEvZZGDsvH-64" value="" style="endArrow=none;html=1;rounded=0;" edge="1" parent="1" source="A1ZuuhthlVVNKibYsWye-36" target="xFF72bUd_hSEvZZGDsvH-54">
          <mxGeometry width="50" height="50" relative="1" as="geometry">
            <mxPoint x="2280" y="-330" as="sourcePoint" />
            <mxPoint x="2950" y="-2110" as="targetPoint" />
            <Array as="points">
              <mxPoint x="1870" y="-720" />
              <mxPoint x="2560" y="-970" />
            </Array>
          </mxGeometry>
        </mxCell>
        <mxCell id="xFF72bUd_hSEvZZGDsvH-67" value="" style="endArrow=none;html=1;rounded=0;" edge="1" parent="1" target="xFF72bUd_hSEvZZGDsvH-68">
          <mxGeometry width="50" height="50" relative="1" as="geometry">
            <mxPoint x="1870" y="280" as="sourcePoint" />
            <mxPoint x="2270" y="280" as="targetPoint" />
            <Array as="points">
              <mxPoint x="2305" y="280" />
            </Array>
          </mxGeometry>
        </mxCell>
        <mxCell id="xFF72bUd_hSEvZZGDsvH-68" value="Ha Csabika az ősellenséged" style="rounded=0;whiteSpace=wrap;html=1;" vertex="1" parent="1">
          <mxGeometry x="2244.62" y="400" width="120" height="60" as="geometry" />
        </mxCell>
        <mxCell id="xFF72bUd_hSEvZZGDsvH-72" value="" style="endArrow=none;html=1;rounded=0;entryX=0.141;entryY=1.003;entryDx=0;entryDy=0;exitX=0.5;exitY=0;exitDx=0;exitDy=0;entryPerimeter=0;" edge="1" parent="1" source="xFF72bUd_hSEvZZGDsvH-73" target="xFF72bUd_hSEvZZGDsvH-68">
          <mxGeometry width="50" height="50" relative="1" as="geometry">
            <mxPoint x="2190" y="570" as="sourcePoint" />
            <mxPoint x="2250" y="440" as="targetPoint" />
          </mxGeometry>
        </mxCell>
        <mxCell id="xFF72bUd_hSEvZZGDsvH-73" value="Ha van haribod&lt;br&gt;megkímél" style="rounded=0;whiteSpace=wrap;html=1;" vertex="1" parent="1">
          <mxGeometry x="2150" y="530" width="120" height="60" as="geometry" />
        </mxCell>
        <mxCell id="xFF72bUd_hSEvZZGDsvH-74" value="Ha nincs megöl" style="rounded=0;whiteSpace=wrap;html=1;" vertex="1" parent="1">
          <mxGeometry x="2334.62" y="530" width="120" height="60" as="geometry" />
        </mxCell>
        <mxCell id="xFF72bUd_hSEvZZGDsvH-75" value="" style="endArrow=none;html=1;rounded=0;exitX=0.75;exitY=1;exitDx=0;exitDy=0;" edge="1" parent="1" source="xFF72bUd_hSEvZZGDsvH-68" target="xFF72bUd_hSEvZZGDsvH-74">
          <mxGeometry width="50" height="50" relative="1" as="geometry">
            <mxPoint x="2200" y="490" as="sourcePoint" />
            <mxPoint x="2250" y="440" as="targetPoint" />
          </mxGeometry>
        </mxCell>
      </root>
    </mxGraphModel>
  </diagram>
</mxfile>
